<?xml version="1.0" encoding="UTF-8"?>
<svg width="160px" height="126px" viewBox="0" version="1.1" xmlns="http://www.w3.org/2000/svg" xmlns:xlink="http://www.w3.org/1999/xlink">
    <!-- Generator: Sketch 51 (57462) - http://www.bohemiancoding.com/sketch -->
    <title>img_dapp</title>
    <desc>Created with Sketch.</desc>
    <defs>
        <polygon id="path-1" points="1.73469388e-05 0.0609620991 33.937551 0.0609620991 33.937551 33.1904762 1.73469388e-05 33.1904762"></polygon>
    </defs>
    <g id="img_dapp" stroke="none" stroke-width="1" fill="none" fill-rule="evenodd">
        <g id="Group-2">
            <path d="M160,104.039225 C160,106.226898 158.190629,108 155.957195,108 L4.0428046,108 C1.80968397,108 0,106.226898 0,104.039225 L0,3.96138701 C0,1.77432661 1.80968397,0 4.0428046,0 L155.957195,0 C158.190316,0 160,1.77432661 160,3.96138701 L160,104.039225 Z" id="Shape" fill="#E2E5E7" fill-rule="nonzero"></path>
            <path d="M98.7786197,108 L80.5001574,108 L62.2213803,108 C62.2213803,108 61.4807103,120.375056 60,123 L80.5001574,123 L101,123 C99.5192897,120.374737 98.7786197,108 98.7786197,108 Z" id="Shape" fill="#D1D5D5" fill-rule="nonzero"></path>
            <path d="M104.315055,124.178571 C102.103774,123.856778 100.906794,123 100.906794,123 L80.5001567,123 L60.0932061,123 C60.0932061,123 58.8962256,123.857143 56.6849452,124.178571 C54.4742914,124.500364 53,124.713921 53,126 L80.5001567,126 L108,126 C107.999687,124.713921 106.525709,124.500364 104.315055,124.178571 Z" id="Shape" fill="#C6CBCB" fill-rule="nonzero"></path>
            <path d="M155.9575,0 L4.0428125,0 C1.8096875,0 0,1.79631291 0,4.01047394 L0,95 L160,95 L160,4.01047394 C160.000313,1.79631291 158.190938,0 155.9575,0 Z M153.378437,89.3010849 L73.0828125,89.3010849 L6.621875,89.3010849 L6.621875,5.70015499 L124.616562,5.70015499 L153.378437,5.70015499 L153.378437,89.3010849 Z" id="Shape" fill="#2D404E" fill-rule="nonzero"></path>
            <polygon id="Shape" fill="#E2E5E7" fill-rule="nonzero" points="7 6 7 89 73.5711819 89 154 89 154 6 125.190415 6"></polygon>
            <path d="M98.6714227,108 L80.5001565,108 L62.3285773,108 C62.3285773,108 62.2187386,109.732333 62,112 L99,112 C98.7812614,109.732333 98.6714227,108 98.6714227,108 Z" id="Shape" fill="#C6CBCB" fill-rule="nonzero"></path>
            <circle id="Oval" fill="#2D404E" fill-rule="nonzero" cx="80.5" cy="102.5" r="2.5"></circle>
            <g id="Group-6" transform="translate(100.000000, 31.000000)">
                <g id="Group-3">
                    <mask id="mask-2" fill="white">
                        <use xlink:href="#path-1"></use>
                    </mask>
                    <g id="Clip-2"></g>
                </g>
            </g>
            <g id="Group" transform="translate(28.000000, 23.000000)">
                <g id="Group-6" transform="translate(55.312500, 0.000000)">
                    <g id="Group-3" fill="#536DFE">
                        <path d="M43.7004351,48.7532798 L5.89585284,48.7532798 C2.65298294,48.7532798 2.5350978e-05,46.1499581 2.5350978e-05,42.968314 L2.5350978e-05,5.87433836 C2.5350978e-05,2.69269424 2.65298294,0.0893725847 5.89585284,0.0893725847 L43.7004351,0.0893725847 C46.9430515,0.0893725847 49.5962626,2.69269424 49.5962626,5.87433836 L49.5962626,42.968314 C49.5962626,46.1499581 46.9430515,48.7532798 43.7004351,48.7532798" id="Fill-1"></path>
                    </g>
                    <path d="M30.3581104,19.6729123 C29.9441965,19.6729123 29.6085839,19.3423631 29.6085839,18.9346941 C29.6085839,18.527273 29.9441965,18.1969718 30.3581104,18.1969718 C30.7720242,18.1969718 31.1073851,18.527273 31.1073851,18.9346941 C31.1073851,19.3423631 30.7720242,19.6729123 30.3581104,19.6729123 M31.1041121,21.6616628 C31.0874951,21.8082153 31.0137258,21.9406334 30.8963998,22.0326317 C28.9232594,23.5690778 26.8224703,24.5302245 24.651185,24.8910265 C23.9978356,24.9996391 23.329128,25.0544413 22.6639453,25.0544413 C21.4962248,25.0544413 20.3081108,24.8858191 19.1335924,24.5537821 C16.5788577,23.8299463 14.7756637,22.5508971 14.1187894,22.0346155 C13.9999528,21.9406334 13.9244211,21.8010241 13.9110772,21.6517438 C13.8992439,21.516846 13.9392757,21.3819482 14.0213535,21.2735837 L14.0505591,21.2383714 C14.2492075,21.0196584 14.5835613,20.9923813 14.8149402,21.1736502 C15.4320344,21.6532317 17.1211755,22.8430103 19.4614001,23.5018769 C21.1520519,23.9772428 22.8381718,24.079656 24.4784691,23.804157 C26.4576521,23.4733599 28.3839628,22.5868533 30.2022633,21.1706745 C30.4401882,20.98519 30.7896483,21.02313 30.9809953,21.2525059 C31.0766689,21.3693016 31.1202255,21.5138703 31.1041121,21.6616628 M14.6583377,18.1969718 C15.0719998,18.1969718 15.4076124,18.527273 15.4076124,18.9346941 C15.4076124,19.3423631 15.0719998,19.6729123 14.6583377,19.6729123 C14.2444239,19.6729123 13.909063,19.3423631 13.909063,18.9346941 C13.909063,18.527273 14.2444239,18.1969718 14.6583377,18.1969718 M34.0868599,33.5666405 C34.0936577,33.5559776 34.1231151,33.5130781 34.1346966,33.49572 C36.9424627,30.4523366 38.5651359,26.9105258 38.1096796,22.6513265 C37.8772936,20.4773395 37.0932743,18.4595761 35.9026426,16.732934 L35.9026426,10.9353049 L32.038943,13.0197733 C30.1841356,11.8433852 28.0226694,11.1069028 25.7169376,10.962582 C22.7326792,10.7758577 19.9430408,11.5569754 17.6385678,13.0167976 L13.7801555,10.9353049 L13.7801555,16.732934 L13.7804073,16.732934 C12.3437939,18.8290572 11.5048882,21.3551671 11.5048882,24.0746965 C11.5048882,24.0746965 11.4804663,24.554774 11.5675795,25.3388673 C12.0006281,29.8053728 14.7029014,33.619211 18.5270727,35.6486291 C22.211762,37.7556631 26.4042763,38.2302851 34.9547194,37.491571 C32.5618744,36.1616871 33.8149457,33.9837325 34.0868599,33.5666405" id="Fill-4" fill="#FFFFFF"></path>
                </g>
                <g id="Group-6">
                    <g id="Group-3" fill="#FFFFFF">
                        <path d="M43.7004351,48.7532798 L5.89585284,48.7532798 C2.65298294,48.7532798 2.5350978e-05,46.1499581 2.5350978e-05,42.968314 L2.5350978e-05,5.87433836 C2.5350978e-05,2.69269424 2.65298294,0.0893725847 5.89585284,0.0893725847 L43.7004351,0.0893725847 C46.9430515,0.0893725847 49.5962626,2.69269424 49.5962626,5.87433836 L49.5962626,42.968314 C49.5962626,46.1499581 46.9430515,48.7532798 43.7004351,48.7532798" id="Fill-1"></path>
                    </g>
                    <path d="M30.3581104,19.6729123 C29.9441965,19.6729123 29.6085839,19.3423631 29.6085839,18.9346941 C29.6085839,18.527273 29.9441965,18.1969718 30.3581104,18.1969718 C30.7720242,18.1969718 31.1073851,18.527273 31.1073851,18.9346941 C31.1073851,19.3423631 30.7720242,19.6729123 30.3581104,19.6729123 M31.1041121,21.6616628 C31.0874951,21.8082153 31.0137258,21.9406334 30.8963998,22.0326317 C28.9232594,23.5690778 26.8224703,24.5302245 24.651185,24.8910265 C23.9978356,24.9996391 23.329128,25.0544413 22.6639453,25.0544413 C21.4962248,25.0544413 20.3081108,24.8858191 19.1335924,24.5537821 C16.5788577,23.8299463 14.7756637,22.5508971 14.1187894,22.0346155 C13.9999528,21.9406334 13.9244211,21.8010241 13.9110772,21.6517438 C13.8992439,21.516846 13.9392757,21.3819482 14.0213535,21.2735837 L14.0505591,21.2383714 C14.2492075,21.0196584 14.5835613,20.9923813 14.8149402,21.1736502 C15.4320344,21.6532317 17.1211755,22.8430103 19.4614001,23.5018769 C21.1520519,23.9772428 22.8381718,24.079656 24.4784691,23.804157 C26.4576521,23.4733599 28.3839628,22.5868533 30.2022633,21.1706745 C30.4401882,20.98519 30.7896483,21.02313 30.9809953,21.2525059 C31.0766689,21.3693016 31.1202255,21.5138703 31.1041121,21.6616628 M14.6583377,18.1969718 C15.0719998,18.1969718 15.4076124,18.527273 15.4076124,18.9346941 C15.4076124,19.3423631 15.0719998,19.6729123 14.6583377,19.6729123 C14.2444239,19.6729123 13.909063,19.3423631 13.909063,18.9346941 C13.909063,18.527273 14.2444239,18.1969718 14.6583377,18.1969718 M34.0868599,33.5666405 C34.0936577,33.5559776 34.1231151,33.5130781 34.1346966,33.49572 C36.9424627,30.4523366 38.5651359,26.9105258 38.1096796,22.6513265 C37.8772936,20.4773395 37.0932743,18.4595761 35.9026426,16.732934 L35.9026426,10.9353049 L32.038943,13.0197733 C30.1841356,11.8433852 28.0226694,11.1069028 25.7169376,10.962582 C22.7326792,10.7758577 19.9430408,11.5569754 17.6385678,13.0167976 L13.7801555,10.9353049 L13.7801555,16.732934 L13.7804073,16.732934 C12.3437939,18.8290572 11.5048882,21.3551671 11.5048882,24.0746965 C11.5048882,24.0746965 11.4804663,24.554774 11.5675795,25.3388673 C12.0006281,29.8053728 14.7029014,33.619211 18.5270727,35.6486291 C22.211762,37.7556631 26.4042763,38.2302851 34.9547194,37.491571 C32.5618744,36.1616871 33.8149457,33.9837325 34.0868599,33.5666405" id="Fill-4" fill="#536DFE"></path>
                </g>
            </g>
            <path d="M155.967253,0 L128.205915,0 L85,95 L160,95 L160,4.01047394 C160,1.79631291 158.19513,0 155.967253,0 Z" id="Shape" fill="#FFFFFF" fill-rule="nonzero" opacity="0.08"></path>
        </g>
    </g>
</svg>
