<?xml version="1.0" encoding="UTF-8"?>
<svg width="135px" height="127px" viewBox="0" version="1.1" xmlns="http://www.w3.org/2000/svg" xmlns:xlink="http://www.w3.org/1999/xlink">
    <!-- Generator: sketchtool 51 (57462) - http://www.bohemiancoding.com/sketch -->
    <title>5275A550-DAF2-4716-B0AA-32F830715706</title>
    <desc>Created with sketchtool.</desc>
    <defs></defs>
    <g id="Symbols" stroke="none" stroke-width="1" fill="none" fill-rule="evenodd">
        <g id="img_faq">
            <g id="Group-26">
                <g id="symbol_alert" transform="translate(25.000000, 16.000000)">
                    <ellipse id="Oval" fill="#FFFFFF" cx="46.5714286" cy="47.5714286" rx="42.2857143" ry="33.4761905"></ellipse>
                    <path d="M77.1516565,35.8756909 C75.4692195,35.8756909 74.1046009,34.5115168 74.1046009,32.8286353 C74.1046009,31.1453093 75.4692195,29.7815796 77.1516565,29.7815796 C78.834538,29.7815796 80.1987122,31.1453093 80.1987122,32.8286353 C80.1987122,34.5115168 78.834538,35.8756909 77.1516565,35.8756909 M45.4302737,60.7993171 C40.8914721,60.7993171 37.2110022,55.2483862 37.2110022,48.4017344 C37.2110022,41.5546381 40.8914721,36.0045963 45.4302737,36.0045963 C49.9695199,36.0045963 53.6486562,41.5546381 53.6486562,48.4017344 C53.6486562,55.2483862 49.9695199,60.7993171 45.4302737,60.7993171 M13.5879866,35.8756909 C11.9051051,35.8756909 10.5409309,34.5115168 10.5409309,32.8286353 C10.5409309,31.1453093 11.9051051,29.7815796 13.5879866,29.7815796 C15.2704236,29.7815796 16.6350422,31.1453093 16.6350422,32.8286353 C16.6350422,34.5115168 15.2704236,35.8756909 13.5879866,35.8756909 M92.608837,93.4457069 C92.6377295,93.4017013 92.7577449,93.2252343 92.8053065,93.1532251 C104.223209,80.586732 110.822273,65.9617539 108.970037,48.3755089 C108.025027,39.3996964 104.836176,31.0684106 99.9946687,23.937278 L99.9946687,0 L84.2815517,8.60643202 C76.7383665,3.74936753 67.9474665,0.708979396 58.5711584,0.112903302 C46.434498,-0.658750762 35.0899386,2.56654986 25.7189646,8.59487498 L10.0276281,0 L10.0276281,23.937278 L10.0289616,23.937278 C4.18643799,32.5930497 0.774446864,43.0246036 0.774446864,54.2531481 C0.774446864,54.2531481 0.676212102,56.2347344 1.02959055,59.4720365 C2.79025976,77.9152799 13.7801071,93.663068 29.3323147,102.04236 C44.3164498,110.742582 61.3666264,112.702832 96.1390654,109.652665 C86.4076009,104.160408 91.504696,95.1677045 92.608837,93.4457069" id="Fill-1" fill="#536DFE"></path>
                </g>
                <path d="M12.7521724,0 C9.35139999,0 6.50119487,0.956529906 4.20222549,2.86936691 C1.90281048,4.78220391 0.50177157,7.41962401 0,10.7816272 L5.91252681,11.3609372 C6.1442508,9.42938403 6.84900368,7.86413301 8.0281223,6.66629822 C9.20634968,5.46890905 10.7424124,4.8691004 12.6363104,4.8691004 C13.485668,4.8691004 14.2882351,5.02395442 15.0417837,5.33299401 C15.7951095,5.64247923 16.4419314,6.06738082 16.9835862,6.60814441 C17.524127,7.14979924 17.9588323,7.79639831 18.2877021,8.5497241 C18.6156807,9.30349551 18.7803384,10.1250016 18.7803384,11.0133512 C18.7803384,11.9028148 18.6156807,12.7042679 18.2877021,13.4188245 C17.9588323,14.1342723 17.5432888,14.8100597 17.04174,15.4475235 C16.5388544,16.0852101 15.9782606,16.7037349 15.3604042,17.3024295 C14.7418794,17.9020153 14.1233546,18.4909062 13.505721,19.070439 C12.7323422,19.8050486 12.0855203,20.4327087 11.5636957,20.9543105 C11.0423167,21.4759123 10.6265504,22.0173443 10.3177336,22.5772697 C10.0078028,23.1378635 9.77607877,23.7655236 9.622116,24.4611412 C9.46703917,25.1567588 9.3901692,26.0261694 9.3901692,27.0695958 L9.3901692,30.605392 L14.9546644,30.605392 L14.9546644,28.0550912 C14.9546644,27.2433888 14.9927652,26.5676014 15.0707492,26.0261694 C15.1476192,25.4854058 15.2926695,24.9927695 15.5054545,24.5480377 C15.7173483,24.1041971 16.0072261,23.6786271 16.3748651,23.2726645 C16.7416129,22.8673703 17.234472,22.3742884 17.8529968,21.7945328 L18.4325296,21.2731538 L21.9106176,17.6792038 C22.6828824,16.7137614 23.281577,15.6796931 23.7075926,14.5781129 C24.1322714,13.4767555 24.3450564,12.1926926 24.3450564,10.7234734 C24.3450564,9.02342141 24.0451521,7.50652051 23.4466803,6.1732163 C22.8470945,4.84013491 22.0262568,3.71983852 20.9830532,2.81143591 C19.9398496,1.90392454 18.7126037,1.20830694 17.3024295,0.724805913 C15.8911413,0.241973324 14.3749088,0 12.7521724,0 Z M9.41935751,35.9091977 C8.66580891,36.6625235 8.28903461,37.5608996 8.28903461,38.604326 C8.28903461,39.6475296 8.66580891,40.5463513 9.41935751,41.2998999 C10.1726833,42.0534485 11.0710594,42.43 12.1144858,42.43 C13.1576894,42.43 14.0560655,42.0534485 14.8098369,41.2998999 C15.5636083,40.5463513 15.9401598,39.6475296 15.9401598,38.604326 C15.9401598,37.5608996 15.5636083,36.6625235 14.8098369,35.9091977 C14.0560655,35.1556491 13.1576894,34.778652 12.1144858,34.778652 C11.0710594,34.778652 10.1726833,35.1556491 9.41935751,35.9091977 Z" id="Fill-1" fill="#FF6B64"></path>
            </g>
        </g>
    </g>
</svg>
