<svg xmlns="http://www.w3.org/2000/svg" width="313" height="187" viewBox="0 0 313 187">
    <defs>
        <linearGradient id="a" x1="0%" y1="0%" y2="100%">
            <stop offset="0%" stop-color="#FF606B"/>
            <stop offset="100%" stop-color="#FF1F90"/>
        </linearGradient>
        <filter id="b" width="114.9%" height="114.7%" x="-5.3%" y="-5.3%" filterUnits="objectBoundingBox">
            <feOffset dx="2" dy="2" in="SourceAlpha" result="shadowOffsetOuter1"/>
            <feGaussianBlur in="shadowOffsetOuter1" result="shadowBlurOuter1" stdDeviation="2"/>
            <feColorMatrix in="shadowBlurOuter1" result="shadowMatrixOuter1" values="0 0 0 0 0 0 0 0 0 0 0 0 0 0 0 0 0 0 0.3 0"/>
            <feMerge>
                <feMergeNode in="shadowMatrixOuter1"/>
                <feMergeNode in="SourceGraphic"/>
            </feMerge>
        </filter>
    </defs>
    <g fill="none" fill-rule="evenodd">
        <path fill="none" d="M-741-340H539v1366H-741z"/>
        <path fill="#4D6BFF" fill-rule="nonzero" d="M304.547 69.475l3.63-32.713-22.6 9.36c-22.43-18.416-53.46-21.925-79.377-8.976L186.236 23l-3.63 32.713a74.578 74.578 0 0 0-17.138 40.034 51.131 51.131 0 0 0-.46 7.173c-.374 24.897 11.593 48.342 31.904 62.507 18.617 13.9 40.901 19.257 86.624 20.545l1.01.028c-4.29-4.37-5.81-10.785-3.942-16.64a21.792 21.792 0 0 1 2.918-5.407c.34-.412.698-.815 1.08-1.2l.4-.398c.983-.89 1.947-1.79 2.89-2.702 15.309-14.827 24.96-32.791 25.107-55.385a73.948 73.948 0 0 0-8.452-34.793zM183.12 68.008a4.818 4.818 0 0 1 5.386-3.912 4.826 4.826 0 0 1 4.15 5.21 4.821 4.821 0 0 1-4.997 4.4 4.856 4.856 0 0 1-3.548-1.825 4.882 4.882 0 0 1-.99-3.873zm91.287 26.578a3.082 3.082 0 0 1-1.382 1.941c-11.861 7.353-24.068 11.424-36.285 12.097a66.877 66.877 0 0 1-11.079-.307 71.5 71.5 0 0 1-19.183-4.972 83.045 83.045 0 0 1-26.118-17.13 3.113 3.113 0 0 1-.92-2.261c.028-.759.336-1.48.865-2.028l.18-.179a3.112 3.112 0 0 1 4.264.11 77.55 77.55 0 0 0 24.197 15.838 62.876 62.876 0 0 0 27.536 4.77c11.14-.627 22.333-4.386 33.265-11.167a3.118 3.118 0 0 1 3.44.099 3.077 3.077 0 0 1 1.234 3.193l-.014-.004zm3.627-15.172a4.818 4.818 0 0 1-5.386 3.912 4.826 4.826 0 0 1-4.15-5.21 4.821 4.821 0 0 1 4.998-4.4 4.856 4.856 0 0 1 3.548 1.825 4.882 4.882 0 0 1 .99 3.873z"/>
        <path fill="#FFF" fill-rule="nonzero" d="M138.43 8.036a54.623 54.623 0 0 1 2.23-1.628.9.9 0 1 1 1.024 1.48c-.671.464-1.345.955-2.022 1.472l3.226 3.468a.775.775 0 0 1-.349 1.272l-12.281 3.608a.775.775 0 0 1-.945-1.016l4.483-11.99a.775.775 0 0 1 1.294-.256l3.34 3.59zm45.302 8.44a.9.9 0 1 1-1.464 1.048 66.091 66.091 0 0 0-1.775-2.367.9.9 0 0 1 1.414-1.113 67.89 67.89 0 0 1 1.825 2.432zm-4.447-5.54a.9.9 0 0 1-1.332 1.21 46.182 46.182 0 0 0-2.046-2.116.9.9 0 1 1 1.252-1.293 47.98 47.98 0 0 1 2.126 2.199zm-5.206-4.9a.9.9 0 1 1-1.113 1.415 31.552 31.552 0 0 0-2.37-1.699.9.9 0 0 1 .977-1.51 33.35 33.35 0 0 1 2.506 1.795zM167.91 2.23a.9.9 0 1 1-.744 1.639 22.857 22.857 0 0 0-2.697-1.028.9.9 0 1 1 .532-1.72c.978.303 1.948.672 2.91 1.109zM160.945.257a.9.9 0 1 1-.212 1.787c-.95-.112-1.907-.16-2.872-.14a.9.9 0 0 1-.037-1.8c1.048-.02 2.089.03 3.121.153zm-7.313.307a.9.9 0 1 1 .348 1.766c-.927.183-1.862.425-2.805.725a.9.9 0 1 1-.547-1.715c1.007-.32 2.009-.58 3.004-.776zm-6.888 2.308a.9.9 0 1 1 .764 1.63c-.86.403-1.726.853-2.598 1.35a.9.9 0 0 1-.892-1.563 38.5 38.5 0 0 1 2.726-1.417z"/>
        <path fill="url(#a)" d="M126.238 0l-19.88 14.166C92.799 7.353 77 4.676 60.735 7.591c-12.565 2.253-23.97 7.76-33.42 15.563L4.808 13.782l3.617 32.76C2.966 57.045-.08 68.935.002 81.363.146 103.99 9.753 122 25 136.832c.939.913 1.9 1.813 2.88 2.703.124.124.252.255.397.402.38.385.739.788 1.073 1.2.797 1.086 2.048 3.013 2.91 5.416a16.799 16.799 0 0 1 .183 9.488 16.488 16.488 0 0 1-4.113 7.176l1.007-.027c45.522-1.292 67.721-6.654 86.262-20.577 19.726-13.851 32.178-37.087 31.769-62.598-.013-4.485-.444-7.182-.444-7.182-1.696-15.368-7.878-29.12-17.072-40.072h.002L126.238 0zm-11.36 46.489c-.435-2.499 1.381-4.807 3.882-4.93 2.062-.1 3.908 1.396 4.267 3.456.435 2.499-1.383 4.806-3.883 4.93a4.083 4.083 0 0 1-.197.004c-1.98 0-3.723-1.465-4.069-3.46zM28.701 56.27c-.434-2.5 1.383-4.807 3.883-4.93 2.061-.1 3.908 1.395 4.267 3.456.434 2.5-1.383 4.806-3.883 4.929a4.078 4.078 0 0 1-.196.005c-1.982 0-3.724-1.465-4.071-3.46zm48.697 16.48c-1.511-7.827.748-15.432 4.823-16.244 3.361-.672 6.875 3.744 8.12 10.2 1.509 7.826-.75 15.432-4.824 16.245a3.472 3.472 0 0 1-.678.067c-3.144 0-6.281-4.246-7.441-10.268z" transform="translate(0 23)"/>
        <g filter="url(#b)" transform="rotate(8 -387.223 825.135)">
            <path fill="#403E41" d="M48.874 7.894L12.64 29.205l32.387 57.16 36.235-21.313L48.875 7.894z"/>
            <path fill="#FFF" d="M42.59 62.093l-4.532-14.04 15.846 14.201-11.315-.161zm9.593-22.348l9.668 11.019-5.52 10.063-4.148-21.082zm-14.86 4.997l1.351-12.22 11.062 4.918 4.442 22.445-16.855-15.143zm-.281-15.1l-1.737 15.903 5.878 18.43 15.444.23 7.527-13.74L51.386 35.99l-14.344-6.347z"/>
        </g>
    </g>
</svg>
