<?xml version="1.0" encoding="UTF-8"?>
<svg width="211px" height="130px" viewBox="0" version="1.1" xmlns="http://www.w3.org/2000/svg" xmlns:xlink="http://www.w3.org/1999/xlink">
    <!-- Generator: sketchtool 51 (57462) - http://www.bohemiancoding.com/sketch -->
    <title>064854EF-98AF-49B9-81C0-26FD15F37477</title>
    <desc>Created with sketchtool.</desc>
    <defs>
        <polygon id="path-1" points="0.0151191038 0.109096016 94.6789388 0.109096016 94.6789388 96.6135376 0.0151191038 96.6135376"></polygon>
        <polygon id="path-3" points="0.0152373898 0.109096016 95.4196702 0.109096016 95.4196702 96.6135376 0.0152373898 96.6135376"></polygon>
    </defs>
    <g id="Symbols" stroke="none" stroke-width="1" fill="none" fill-rule="evenodd">
        <g id="img_vote2">
            <g id="Group-5" transform="translate(0, 32.000000)">
                <g id="Group-17" transform="translate(47.500000, 48.500000) scale(-1, 1) translate(-47.500000, -48.500000) ">
                    <g id="Group">
                        <g id="Group-3">
                            <mask id="mask-2" fill="white">
                                <use xlink:href="#path-1"></use>
                            </mask>
                            <g id="Clip-2"></g>
                            <path d="M66.9092755,31.4752633 C65.4412347,31.4752633 64.2512143,30.2892355 64.2512143,28.8261199 C64.2512143,27.3626179 65.4412347,26.1769765 66.9092755,26.1769765 C68.3773163,26.1769765 69.5673367,27.3626179 69.5673367,28.8261199 C69.5673367,30.2892355 68.3773163,31.4752633 66.9092755,31.4752633 M69.5553163,38.6142315 C69.4975408,39.1409685 69.2346429,39.6155343 68.8189694,39.9459526 C61.8188265,45.4621996 54.3661735,48.9124625 46.6638061,50.207857 C44.3465816,50.5981757 41.9735204,50.7948809 39.6136429,50.7948809 C35.4708673,50.7948809 31.2563571,50.1893072 27.0895408,48.9963231 C18.0273163,46.3981916 11.6297449,41.8071159 9.29894898,39.9536817 C8.87784694,39.6155343 8.60913265,39.1150761 8.56182653,38.5802235 C8.51994898,38.0952235 8.66186735,37.6098371 8.95423469,37.2218371 L9.05660204,37.0962394 C9.76154082,36.3098052 10.9480714,36.2124187 11.768949,36.8624347 C13.9574388,38.5852474 19.9501939,42.8559526 28.2524184,45.2210522 C34.2498265,46.9276339 40.2321122,47.2951518 46.0511531,46.3062155 C53.0718469,45.1190283 59.9064184,41.9358052 66.3567245,36.8523869 C67.2012551,36.1861398 68.4401327,36.3225582 69.1187041,37.146092 C69.4579898,37.5653948 69.6134796,38.0847892 69.5553163,38.6142315 M11.2129082,26.1769765 C12.680949,26.1769765 13.8713571,27.3626179 13.8713571,28.8261199 C13.8713571,30.2892355 12.680949,31.4752633 11.2129082,31.4752633 C9.74486735,31.4752633 8.55484694,30.2892355 8.55484694,28.8261199 C8.55484694,27.3626179 9.74486735,26.1769765 11.2129082,26.1769765 M80.1367653,81.3518131 C80.1619694,81.3135542 80.2662755,81.1601319 80.3077653,81.0975263 C90.2684184,70.1720801 96.0246429,57.4569645 94.4092551,42.1672912 C93.5845,34.3636219 90.8031327,27.1203112 86.5793163,20.9204267 L86.5793163,0.109096016 L72.8721735,7.59162191 C66.2919694,3.36883705 58.6237245,0.725490438 50.4444184,0.207255378 C39.8571531,-0.463629084 29.9608673,2.34048247 21.7858265,7.5815741 L8.09807143,0.109096016 L8.09807143,20.9204267 L8.09923469,20.9204267 C3.00258163,28.445849 0.0261734694,37.5147693 0.0261734694,47.2773749 C0.0261734694,47.2773749 -0.0599081633,49.0001876 0.248357143,51.8147335 C1.78464286,67.8494904 11.3715,81.5407892 24.9382755,88.8258371 C38.0095,96.3899048 52.8830102,98.0937813 83.2159286,95.4423191 C74.7271939,90.6672912 79.1731939,82.8489367 80.1367653,81.3518131" id="Fill-1" fill="#2339B1" mask="url(#mask-2)"></path>
                        </g>
                    </g>
                </g>
                <g id="Group-17" transform="translate(81.000000, 0.000000)">
                    <g id="Group" transform="translate(34.256757, 0.000000)">
                        <g id="Group-3">
                            <mask id="mask-4" fill="white">
                                <use xlink:href="#path-3"></use>
                            </mask>
                            <g id="Clip-2"></g>
                            <path d="M67.4327478,31.4752633 C65.9532216,31.4752633 64.7538909,30.2892355 64.7538909,28.8261199 C64.7538909,27.3626179 65.9532216,26.1769765 67.4327478,26.1769765 C68.912274,26.1769765 70.1116047,27.3626179 70.1116047,28.8261199 C70.1116047,30.2892355 68.912274,31.4752633 67.4327478,31.4752633 M70.0994902,38.6142315 C70.0412627,39.1409685 69.7763079,39.6155343 69.3573824,39.9459526 C62.3024731,45.4621996 54.7915134,48.9124625 47.0288857,50.207857 C44.6935321,50.5981757 42.301905,50.7948809 39.9235647,50.7948809 C35.7483777,50.7948809 31.5008948,50.1893072 27.3014789,48.9963231 C18.1683551,46.3981916 11.7207315,41.8071159 9.37170036,39.9536817 C8.94730378,39.6155343 8.67648718,39.1150761 8.62881095,38.5802235 C8.58660576,38.0952235 8.72963445,37.6098371 9.02428916,37.2218371 L9.12745739,37.0962394 C9.83791133,36.3098052 11.0337249,36.2124187 11.8610247,36.8624347 C14.0666364,38.5852474 20.1062765,42.8559526 28.4734544,45.2210522 C34.5177839,46.9276339 40.5468727,47.2951518 46.4114395,46.3062155 C53.4870605,45.1190283 60.375103,41.9358052 66.8758738,36.8523869 C67.7270117,36.1861398 68.9755818,36.3225582 69.6594621,37.146092 C70.0014022,37.5653948 70.1581085,38.0847892 70.0994902,38.6142315 M11.3006336,26.1769765 C12.7801598,26.1769765 13.9798813,27.3626179 13.9798813,28.8261199 C13.9798813,30.2892355 12.7801598,31.4752633 11.3006336,31.4752633 C9.82110742,31.4752633 8.62177675,30.2892355 8.62177675,28.8261199 C8.62177675,27.3626179 9.82110742,26.1769765 11.3006336,26.1769765 M80.7637244,81.3518131 C80.7891256,81.3135542 80.8942478,81.1601319 80.9360622,81.0975263 C90.9746435,70.1720801 96.7759025,57.4569645 95.1478766,42.1672912 C94.3166689,34.3636219 91.5135412,27.1203112 87.2566794,20.9204267 L87.2566794,0.109096016 L73.4422972,7.59162191 C66.8106121,3.36883705 59.0823738,0.725490438 50.839076,0.207255378 C40.16898,-0.463629084 30.1952696,2.34048247 21.9562704,7.5815741 L8.16142761,0.109096016 L8.16142761,20.9204267 L8.16259997,20.9204267 C3.02607267,28.445849 0.0263782405,37.5147693 0.0263782405,47.2773749 C0.0263782405,47.2773749 -0.0603768616,49.0001876 0.250300193,51.8147335 C1.79860521,67.8494904 11.4604662,81.5407892 25.1333829,88.8258371 C38.3068716,96.3899048 53.2967464,98.0937813 83.8669778,95.4423191 C75.3118305,90.6672912 79.7926143,82.8489367 80.7637244,81.3518131" id="Fill-1" fill="#536DFE" mask="url(#mask-4)"></path>
                        </g>
                    </g>
                    <g id="Group" transform="translate(28.192462, 57.113536) rotate(15.000000) translate(-28.192462, -57.113536) translate(5.192462, 34.113536)">
                        <polygon id="Fill-1" fill="#605C6E" points="17.8222985 0 0 17.7309021 27.8533771 45.4414414 45.6756757 27.7105393 17.8232839 0"></polygon>
                        <path d="M22.6325153,31.9417881 L17.7903378,24.6109183 L29.2640853,30.3012413 L22.6325153,31.9417881 Z M24.7375078,17.6987014 L32.1064703,22.5161725 L30.4575099,29.113906 L24.7375078,17.6987014 Z M16.8430415,22.8306559 L15.7200811,15.6395016 L22.9486115,16.7562386 L29.0536853,28.9050732 L16.8430415,22.8306559 Z M14.3162566,14.2428399 L15.7900491,23.5988446 L22.106019,33.233293 L31.159174,30.9993253 L33.4045986,21.9928563 L23.6850115,15.6740602 L14.3162566,14.2428399 Z" id="Fill-2" fill="#FFFFFF"></path>
                    </g>
                </g>
                <g transform="translate(-185,-73)">
                    <path id="Path-3" d="M256.560759,61.8320886 L260.865266,49.7773011 C261.009288,49.3739665 261.453009,49.1637522 261.856344,49.3077744 C261.969719,49.3482585 262.072112,49.4145834 262.155414,49.5014967 L270.077441,57.7670176 C270.373786,58.0762118 270.363369,58.5670981 270.054175,58.8634429 C269.967262,58.9467443 269.862147,59.008666 269.747156,59.0443042 L257.520622,62.8335707 C257.111541,62.9603537 256.677137,62.731506 256.550354,62.3224249 C256.500684,62.162158 256.504335,61.9901042 256.560759,61.8320886 Z M318.452816,61.6090422 C318.7404,62.0144554 318.644882,62.5762414 318.239469,62.8638263 C317.834055,63.1514112 317.272269,63.0558925 316.984684,62.6504793 C316.400569,61.8270425 315.81358,61.0317802 315.223733,60.2646911 C314.920743,59.8706575 314.99455,59.3056088 315.388583,59.0026197 C315.782617,58.6996305 316.347665,58.7734366 316.650655,59.1674702 C317.254745,59.9530825 317.85546,60.7669403 318.452816,61.6090422 Z M314.085536,56.0247246 C314.411528,56.3999503 314.371616,56.9683993 313.99639,57.2943911 C313.621164,57.6203829 313.052715,57.580471 312.726724,57.2052453 C312.065467,56.4441201 311.400792,55.7175212 310.732728,55.0254358 C310.387517,54.6678126 310.397579,54.098053 310.755202,53.752842 C311.112825,53.4076311 311.682585,53.4176932 312.027796,53.7753164 C312.71797,54.4903062 313.403874,55.2401132 314.085536,56.0247246 Z M309.081891,50.9577928 C309.455367,51.2857869 309.492238,51.8544413 309.164244,52.2279179 C308.83625,52.6013945 308.267595,52.6382653 307.894119,52.3102712 C307.140909,51.6487885 306.383623,51.0299942 305.62229,50.4538401 C305.225937,50.1538918 305.147785,49.5894277 305.447734,49.1930745 C305.747682,48.7967212 306.312146,48.7185696 306.708499,49.018518 C307.505101,49.6213627 308.296222,50.2678037 309.081891,50.9577928 Z M303.279492,46.7129483 C303.707678,46.9653802 303.850155,47.5171299 303.597723,47.9453157 C303.345291,48.3735014 302.793541,48.5159781 302.365355,48.2635461 C301.511742,47.7603085 300.653226,47.3090034 299.789778,46.9095188 C299.338664,46.7008055 299.14216,46.1659099 299.350873,45.714796 C299.559587,45.2636822 300.094482,45.0671778 300.545596,45.2758912 C301.463697,45.7006617 302.375004,46.1797181 303.279492,46.7129483 Z M296.686899,43.8222358 C297.163976,43.9617441 297.437629,44.4615851 297.298121,44.938662 C297.158613,45.415739 296.658771,45.6893924 296.181695,45.5498842 C295.248106,45.2768813 294.308533,45.0622778 293.3628,44.9059866 C292.872396,44.8249426 292.540543,44.3616918 292.621587,43.8712871 C292.702631,43.3808824 293.165882,43.0490299 293.656287,43.1300739 C294.673749,43.2982191 295.684012,43.5289688 296.686899,43.8222358 Z M289.478363,42.7916278 C289.975418,42.7907677 290.379059,43.1930135 290.379919,43.690069 C290.380779,44.1871245 289.978533,44.590765 289.481478,44.5916251 C288.525285,44.5932799 287.562298,44.6523274 286.592347,44.7688416 C286.098838,44.8281238 285.650713,44.4761138 285.591431,43.9826054 C285.532149,43.4890969 285.884159,43.0409717 286.377667,42.9816895 C287.417472,42.8567841 288.451094,42.7934056 289.478363,42.7916278 Z M282.251525,43.7913744 C282.731257,43.66129 283.225611,43.9447357 283.355695,44.4244679 C283.48578,44.9042001 283.202334,45.3985541 282.722602,45.5286384 C281.804053,45.7777124 280.879206,46.076532 279.948034,46.4251926 C279.482539,46.5994889 278.963886,46.3634256 278.789589,45.8979304 C278.615293,45.4324353 278.851356,44.9137818 279.316851,44.7394855 C280.300019,44.371356 281.278252,44.0552872 282.251525,43.7913744 Z M275.658165,46.3381988 C276.102979,46.1163759 276.643395,46.297146 276.865218,46.7419601 C277.087041,47.1867741 276.906271,47.7271902 276.461457,47.949013 C275.605692,48.3757718 274.744806,48.8433121 273.878821,49.3516781 C273.450167,49.6033144 272.898683,49.4598133 272.647047,49.0311594 C272.395411,48.6025056 272.538912,48.0510215 272.967566,47.7993852 C273.868453,47.2705295 274.765312,46.7834527 275.658165,46.3381988 Z M269.522772,50.0114219 C269.93063,49.7273144 270.491579,49.8276337 270.775686,50.2354913 C271.059794,50.643349 270.959474,51.2042976 270.551617,51.4884051 C269.761572,52.0387383 268.967501,52.6220574 268.169426,53.2383767 C267.776023,53.5421847 267.210822,53.4695537 266.907014,53.076151 C266.603206,52.6827483 266.675837,52.1175474 267.06924,51.8137395 C267.890406,51.1795885 268.708243,50.5788112 269.522772,50.0114219 Z" fill="#FF6B64" fill-rule="nonzero"></path>
                </g>
            </g>
        </g>
    </g>
</svg>
