<?xml version="1.0" encoding="UTF-8"?>
<svg width="400px" height="178px" viewBox="0 0 400 178" version="1.1" xmlns="http://www.w3.org/2000/svg" xmlns:xlink="http://www.w3.org/1999/xlink">
    <!-- Generator: sketchtool 51 (57462) - http://www.bohemiancoding.com/sketch -->
    <title>587A89CD-28E6-4425-BC8A-69C93981F9EF</title>
    <desc>Created with sketchtool.</desc>
    <defs></defs>
    <g id="Symbols" stroke="none" stroke-width="1" fill="none" fill-rule="evenodd">
        <g id="img_ram-market">
            <g id="Group-23" transform="translate(257.000000, 58.000000)">
                <path d="M124.946247,0.409445153 L109.189901,9.04024479 C101.625749,4.16923418 92.81086,1.11994945 83.4080444,0.522662274 C71.2380954,-0.250690893 59.8615577,2.98357457 50.4645367,9.0282099 L34.7300313,0.409445153 L34.7300313,24.4141491 L34.7309228,24.4141491 C28.8721597,33.0935341 25.4511305,43.5536371 25.4511305,54.8138375 C25.4511305,54.8138375 25.352177,56.800486 25.7065377,60.0467863 C27.4725465,78.5412933 38.4924948,94.3328529 54.0874845,102.735435 C69.11416,111.459394 86.2112824,113.425093 121.080373,110.367339 C111.321859,104.859816 116.432676,95.8416716 117.540332,94.1148877 C117.56975,94.0712055 117.689654,93.8938023 117.736902,93.8215929 C129.187432,81.2201708 135.804393,66.5545421 133.946562,48.9198612 C132.999372,39.9191001 129.802103,31.5646572 124.946247,24.4141491 L124.946247,0.409445153 Z M99.2793909,33.5316933 C99.2793909,31.8441341 100.647803,30.4761682 102.334916,30.4761682 C104.022921,30.4761682 105.390441,31.8441341 105.390441,33.5316933 C105.390441,35.2192524 104.022921,36.587664 102.334916,36.587664 C100.647803,36.587664 99.2793909,35.2192524 99.2793909,33.5316933 Z M35.2551092,33.5316933 C35.2551092,31.8441341 36.6230751,30.4761682 38.3106342,30.4761682 C39.9981933,30.4761682 41.3661593,31.8441341 41.3661593,33.5316933 C41.3661593,35.2192524 39.9981933,36.587664 38.3106342,36.587664 C36.6230751,36.587664 35.2551092,35.2192524 35.2551092,33.5316933 Z M88.6097916,43.3272029 C89.753552,42.5386947 91.2797544,42.7637917 92.0214603,43.8344512 C92.7649491,44.9109054 92.4471388,46.4241814 91.2998126,47.2175927 C90.9245023,47.4738913 82.2825592,53.3366661 70.153618,50.1630208 C58.0233396,53.3366661 49.3818423,47.4738913 49.006532,47.2175927 C47.8592057,46.4241814 47.5418412,44.9109054 48.28533,43.8344512 C49.0265901,42.7637917 50.5527926,42.5386947 51.6965529,43.3272029 C52.0259523,43.5438309 59.2183596,48.2962756 69.4301873,45.2594714 C69.6686565,45.1877078 69.9124744,45.1591807 70.153618,45.1609636 C70.3947615,45.1591807 70.6381338,45.1877078 70.8761572,45.2594714 C73.3352865,45.9904796 75.6205786,46.2704023 77.6754247,46.2704023 C84.1550991,46.270848 88.3597333,43.4916797 88.6097916,43.3272029 Z" id="Fill-1" fill="#536DFE"></path>
                <g id="groceries" transform="translate(27.376492, 65.902772) rotate(-30.000000) translate(-27.376492, -65.902772) translate(10.376492, 41.902772)">
                    <path d="M4.7165656,15.8657771 C4.46241578,15.8657771 4.21357654,15.7375642 4.07019052,15.5046568 C3.60437561,14.7497939 2.73419695,13.8765806 1.73504673,13.9084441 C1.31019926,13.8856845 0.965769344,13.5913258 0.953630845,13.1733063 C0.94073369,12.7537694 1.26999048,12.4040289 1.6887687,12.3911317 C3.28725732,12.3433364 4.65056251,13.5549104 5.36142338,14.7088264 C5.58143367,15.0653948 5.47066987,15.5327271 5.11410145,15.7527374 C4.99044049,15.8293616 4.85236506,15.8657771 4.7165656,15.8657771 Z" id="Shape" fill="#436B1C" fill-rule="nonzero"></path>
                    <path d="M20.2439821,5.76351116 C20.1423221,4.28564888 18.9140578,3.11731833 17.4104012,3.11731833 C17.4058492,3.11731833 17.4020559,3.11807699 17.397504,3.11807699 C17.424057,2.89427341 17.4088839,2.65757267 17.3368115,2.41100941 C17.1334917,1.71759764 16.5235321,1.18502099 15.8058433,1.09929284 C15.2171261,1.02949647 14.6769629,1.24040289 14.2983934,1.6144204 C13.9380317,1.28895689 13.4661476,1.08563702 12.9426748,1.08563702 C11.8206223,1.08563702 10.9117521,1.99526581 10.9117521,3.11655968 C10.9117521,3.12035296 10.9125108,3.12338758 10.9125108,3.12718086 C9.54920561,3.23035811 8.47418977,4.36758375 8.47418977,5.75744191 C8.47418977,5.96986565 8.50226005,6.17546148 8.54929673,6.37347075 C6.92653112,6.44099115 5.63074633,7.77470875 5.63074633,9.4141648 C5.63074633,9.96950114 5.78171891,10.488422 6.04117933,10.9367878 C5.54274221,11.3464621 5.2241066,11.9678016 5.2241066,12.6634893 C5.2241066,13.2992432 5.49342955,13.868994 5.91979434,14.2748751 C7.7496731,12.7795637 9.67210791,17.7806254 11.935938,21.773433 C12.6877663,23.099564 20.8106983,21.6869462 21.457832,22.5108468 C22.1952458,21.8477813 22.6716819,10.3010339 22.6921656,9.28671056 C22.7240292,7.65939301 21.6907395,6.27105216 20.2439821,5.76351116 Z" id="Shape" fill="#4A920B" fill-rule="nonzero"></path>
                    <path d="M21.2825824,20.8880812 L21.8235043,20.564135 C22.8249305,19.9632793 24.0751959,19.9632793 25.0758634,20.564135 L25.6167853,20.8880812 C26.6182115,21.4889369 27.8684769,21.4889369 28.8691444,20.8880812 L30.3978367,20.2083252 C30.6223989,19.5816752 30.7786821,19.1279988 30.8408919,18.9269549 C32.2671656,14.3393609 33.1858982,9.50899683 33.3110765,4.69077129 C33.3611478,2.75316335 31.7588659,-0.268564295 29.0967413,1.10460343 C26.4801361,2.45349416 24.6062552,7.62677079 23.2892281,10.0832996 C21.4183819,13.5738768 19.9390023,17.3701924 18.8852288,21.2385804 C19.6878871,21.4411416 20.5512378,21.3265845 21.2825824,20.8880812 Z" id="Shape" fill="#EEAF4B" fill-rule="nonzero"></path>
                    <path d="M1.55903849,20.1089413 L2.57943108,20.7211768 C3.75155492,21.4244511 5.21576138,21.4244511 6.38788522,20.7211768 L6.65038026,20.5633763 C7.65180645,19.9625206 8.90207187,19.9625206 9.9027394,20.5633763 L10.4436613,20.8873225 C11.0316198,21.2400977 11.7053065,21.3796904 12.3638201,21.3182393 C12.8493601,19.7500969 12.686249,17.7897293 11.933662,16.4628396 C9.40278496,11.9981478 7.297514,12.9077766 5.27190194,14.8461432 C4.88346997,15.2178847 4.40855119,15.4902423 3.89114766,15.6381803 C1.6698023,16.2731755 0.0303462481,17.3117759 0.96273472,20.1400462 C1.12736312,20.0201785 1.35647729,19.9875563 1.55903849,20.1089413 Z" id="Shape" fill="#ED3F32" fill-rule="nonzero"></path>
                    <path d="M23.2088105,19.2364866 C23.128393,19.2364866 23.0456994,19.2235895 22.9652819,19.1962779 C22.5685047,19.0612371 22.3560809,18.6303203 22.4911217,18.2335431 C22.9971454,16.7450597 24.622187,15.9484707 26.1083945,16.4491838 C26.8055996,16.6866432 27.5650144,16.311867 27.8017152,15.6146619 C27.9359973,15.2178847 28.3653967,15.0039437 28.7644499,15.1397432 C29.1612271,15.274784 29.3736508,15.7057007 29.23861,16.1024779 C28.733345,17.59172 27.1098207,18.3913436 25.6213372,17.8868373 C24.9248908,17.6501365 24.165476,18.0256713 23.9280166,18.7213591 C23.8195288,19.0384774 23.5244115,19.2364866 23.2088105,19.2364866 Z" id="Shape" fill="#A46F3E" fill-rule="nonzero"></path>
                    <path d="M25.0030324,13.9509289 C24.9226149,13.9509289 24.8399213,13.9380317 24.7595038,13.9107201 C24.3627266,13.7756793 24.1503029,13.3447626 24.2853437,12.9479854 C24.5303896,12.2265033 25.0417239,11.6430967 25.7245145,11.3062534 C26.4073051,10.96941 27.1803757,10.9185801 27.9026164,11.163626 C28.6013388,11.4018441 29.3592363,11.0263092 29.5959371,10.3283455 C29.7302192,9.93080968 30.1611359,9.71762728 30.5579131,9.85342674 C30.9546903,9.98846755 31.1671141,10.4193843 31.0320733,10.8161615 C30.5268082,12.3061622 28.903284,13.1042686 27.4148005,12.6012795 C27.0771985,12.4859638 26.7145608,12.5094821 26.3951666,12.6672826 C26.0757723,12.8250831 25.8367956,13.0974407 25.7214799,13.4358013 C25.6145093,13.752161 25.3193921,13.9509289 25.0030324,13.9509289 Z" id="Shape" fill="#A46F3E" fill-rule="nonzero"></path>
                    <path d="M26.798013,8.66461248 C26.7175954,8.66461248 26.6349019,8.65171532 26.5537257,8.6244037 C26.1569485,8.48936289 25.9445248,8.05844617 26.0795656,7.66166898 C26.5226208,6.355263 27.9481358,5.65426467 29.2545418,6.09580258 C29.5048983,6.18077207 29.7719453,6.16408164 30.0078874,6.04800724 C30.2438295,5.93193284 30.4205964,5.73013029 30.5055659,5.4805324 C30.639848,5.08375521 31.0700061,4.87057281 31.4683006,5.00561362 C31.8650778,5.14065442 32.0775015,5.57157114 31.9424607,5.96834834 C31.7270023,6.60182626 31.2786365,7.1139192 30.6792981,7.40903646 C30.0792011,7.70491238 29.4002038,7.74815579 28.7667258,7.53345608 C28.2523569,7.3582065 27.6909514,7.63511601 27.5164604,8.15024357 C27.4087312,8.46584455 27.113614,8.66461248 26.798013,8.66461248 Z" id="Shape" fill="#A46F3E" fill-rule="nonzero"></path>
                    <path d="M13.9365144,11.4519154 C13.2195843,12.4055462 12.0884279,13.5344266 12.5238966,15.5281751 L13.6952617,20.8880812 C13.6952617,20.8880812 13.6960204,20.8880812 13.6960204,20.8880812 L14.2369423,20.564135 C15.2383685,19.9632793 16.4886339,19.9632793 17.4893014,20.564135 L18.0302233,20.8880812 C18.4702439,21.1520936 18.8852288,21.239339 18.8852288,21.239339 C19.6757486,18.3389964 20.705245,15.4788625 21.9593038,12.7583213 C21.3721039,11.2895629 20.1180451,10.7979537 19.2076577,10.2949647 C19.2023471,10.29193 19.1970365,10.2888954 19.1924846,10.2866194 C18.6166645,9.95660399 18.5810077,9.16836019 19.0142004,8.66612979 C19.184898,8.46812052 19.2637983,8.19576294 19.2046231,7.92264671 L19.1128257,7.50386849 C19.0119244,7.04260552 18.5521787,6.74824691 18.0916744,6.84914819 L13.4813207,7.85512631 C13.0200577,7.95602758 12.7256991,8.41577324 12.8266004,8.87627756 L12.9183978,9.29505578 C12.9790903,9.57424126 13.171789,9.79045828 13.4160763,9.89591149 C13.9767232,10.1379228 14.3188771,10.7638142 14.0321051,11.3032187 C14.0047935,11.3540487 13.9729299,11.4033614 13.9365144,11.4519154 Z" id="Shape" fill="#DAE7EF" fill-rule="nonzero"></path>
                    <path d="M18.7737064,9.02725014 L13.5549104,10.1675104 C12.9790903,10.2934473 12.4040289,9.92474043 12.278092,9.34892037 L12.202985,9.00600777 C12.0770481,8.43018771 12.445755,7.85512631 13.021575,7.72918938 L18.2403711,6.58892911 C18.8161911,6.46299218 19.3912525,6.83169909 19.5171894,7.40751915 L19.5922964,7.75043175 C19.7182333,8.32701047 19.3495264,8.90131321 18.7737064,9.02725014 Z" id="Shape" fill="#FFFFFF" fill-rule="nonzero"></path>
                    <path d="M31.7239677,19.9769351 L30.4001126,38.9653412 C30.3030047,40.861223 28.7378969,42.3481892 26.8397391,42.3481892 L5.54350086,42.3481892 C3.64534305,42.3481892 2.0802353,40.861223 1.98312731,38.9653412 L0.6911358,20.5997918 C0.66913477,20.1681165 1.13722565,19.886655 1.50820853,20.1089413 L2.52860112,20.7211768 C3.70072495,21.4244511 5.16493142,21.4244511 6.33705525,20.7211768 L6.5995503,20.5633763 C7.60097648,19.9625206 8.8512419,19.9625206 9.85190943,20.5633763 L10.3928313,20.8880812 C11.3942575,21.4889369 12.6445229,21.4889369 13.6451904,20.8880812 L14.1861123,20.5633763 C15.1875385,19.9625206 16.4378039,19.9625206 17.4384714,20.5633763 L17.9793933,20.8880812 C18.9808195,21.4889369 20.2310849,21.4889369 21.2317525,20.8880812 L21.7726743,20.5633763 C22.7741005,19.9625206 24.0243659,19.9625206 25.0250335,20.5633763 L25.5659553,20.8880812 C26.5673815,21.4889369 27.8176469,21.4889369 28.8183145,20.8880812 L31.387883,19.7463036 C31.5509941,19.6734726 31.7330716,19.7986509 31.7239677,19.9769351 Z" id="Shape" fill="#FBD490" fill-rule="nonzero"></path>
                    <path d="M9.79425156,32.6222167 L4.48365815,32.6222167 C4.06487993,32.6222167 3.72500195,32.2830973 3.72500195,31.8635605 C3.72500195,31.4440236 4.06487993,31.1049043 4.48365815,31.1049043 L9.79425156,31.1049043 C10.2130298,31.1049043 10.5529078,31.4440236 10.5529078,31.8635605 C10.5529078,32.2830973 10.2130298,32.6222167 9.79425156,32.6222167 Z" id="Shape" fill="#E0B877" fill-rule="nonzero"></path>
                    <path d="M11.311564,35.6568415 L4.48365815,35.6568415 C4.06487993,35.6568415 3.72500195,35.3177221 3.72500195,34.8981853 C3.72500195,34.4786484 4.06487993,34.1395291 4.48365815,34.1395291 L11.311564,34.1395291 C11.7303422,34.1395291 12.0702202,34.4786484 12.0702202,34.8981853 C12.0702202,35.3177221 11.7303422,35.6568415 11.311564,35.6568415 Z" id="Shape" fill="#E0B877" fill-rule="nonzero"></path>
                    <path d="M12.8288764,38.6914663 L4.48365815,38.6914663 C4.06487993,38.6914663 3.72500195,38.352347 3.72500195,37.9328101 C3.72500195,37.5132732 4.06487993,37.1741539 4.48365815,37.1741539 L12.8288764,37.1741539 C13.2476546,37.1741539 13.5875326,37.5132732 13.5875326,37.9328101 C13.5875326,38.352347 13.2476546,38.6914663 12.8288764,38.6914663 Z" id="Shape" fill="#E0B877" fill-rule="nonzero"></path>
                    <path d="M17.3808136,38.6914663 L15.8635012,38.6914663 C15.4447229,38.6914663 15.104845,38.352347 15.104845,37.9328101 C15.104845,37.5132732 15.4447229,37.1741539 15.8635012,37.1741539 L17.3808136,37.1741539 C17.7995918,37.1741539 18.1394698,37.5132732 18.1394698,37.9328101 C18.1394698,38.352347 17.7995918,38.6914663 17.3808136,38.6914663 Z" id="Shape" fill="#E0B877" fill-rule="nonzero"></path>
                    <circle id="Oval" fill="#536DFE" cx="15.9317802" cy="40.9674349" r="6.82790581"></circle>
                </g>
            </g>
        </g>
    </g>
</svg>