<?xml version="1.0" encoding="UTF-8"?>
<svg width="128px" height="111px" viewBox="0" version="1.1" xmlns="http://www.w3.org/2000/svg" xmlns:xlink="http://www.w3.org/1999/xlink">
    <!-- Generator: sketchtool 51 (57462) - http://www.bohemiancoding.com/sketch -->
    <title>A43AC6B3-934A-411B-A361-7DBD1D989AB2</title>
    <desc>Created with sketchtool.</desc>
    <defs></defs>
    <g id="Symbols" stroke="none" stroke-width="1" fill="none" fill-rule="evenodd">
        <g id="img_trensfer">
            <g id="Group-19">
                <g id="symbol_smile" transform="translate(96.500000, 32.500000) scale(-1, 1) translate(-96.500000, -32.500000) translate(64.000000, 0.000000)" fill="#2339B1">
                    <path d="M45.7340338,21.1265433 C44.738075,21.1265433 43.9307328,20.3276994 43.9307328,19.3422244 C43.9307328,18.3564891 44.738075,17.5576453 45.7340338,17.5576453 C46.7299926,17.5576453 47.5373347,18.3564891 47.5373347,19.3422244 C47.5373347,20.3276994 46.7299926,21.1265433 45.7340338,21.1265433 M47.5291798,25.9349637 C47.4902464,26.2897451 47.3116262,26.6091264 47.029622,26.8319385 C42.2805349,30.547122 37.2244526,32.8712917 31.9989573,33.7435386 C30.4268892,34.006436 28.81694,34.1389259 27.215935,34.1389259 C24.4053635,34.1389259 21.5463884,33.7313047 18.719507,32.9277756 C12.5711846,31.1775553 8.2308983,28.0855169 6.64962303,26.8368841 C6.36393596,26.6091264 6.18189595,26.2723054 6.14980219,25.9117975 C6.12139132,25.5851279 6.2176726,25.2584583 6.41575949,24.9971226 L6.48547134,24.9122666 C6.96372096,24.3825672 7.76869556,24.3172333 8.32533813,24.7550487 C9.81006907,25.9151813 13.875717,28.7919562 19.5081716,30.3846983 C23.5769763,31.5344191 27.6355214,31.7816989 31.5833168,31.1158655 C36.3463463,30.3159805 40.9831052,28.1719347 45.3591682,24.7480207 C45.9321207,24.2995333 46.7726089,24.3914173 47.2329702,24.9458446 C47.4631508,25.2285244 47.5686393,25.5780999 47.5291798,25.9349637 M7.948368,17.5576453 C8.94406371,17.5576453 9.75166895,18.3564891 9.75166895,19.3422244 C9.75166895,20.3276994 8.94406371,21.1265433 7.948368,21.1265433 C6.95240922,21.1265433 6.14480398,20.3276994 6.14480398,19.3422244 C6.14480398,18.3564891 6.95240922,17.5576453 7.948368,17.5576453 M54.7079222,54.7206728 C54.7250214,54.6949036 54.7960486,54.5913064 54.8239333,54.5491387 C61.581774,47.190613 65.48669,38.6261429 64.3907671,28.3281114 C63.8314939,23.0719844 61.9442757,18.1932845 59.0787239,14.0173797 L59.0787239,0 L49.7794258,5.03982222 C45.3154996,2.19558416 40.1128909,0.414909442 34.5638274,0.0661148045 C27.3811389,-0.385756458 20.6672298,1.50294048 15.1213231,5.03279427 L5.83491507,0 L5.83491507,14.0173797 L5.83570426,14.0173797 C2.37799635,19.0860946 0.358720182,25.1944258 0.358720182,31.7699856 C0.358720182,31.7699856 0.300320064,32.9301182 0.509718687,34.8261034 C1.55171359,45.6259828 8.05569795,54.8479568 17.2597671,59.7547685 C26.1276409,64.8492526 36.2182343,65.9971514 56.7969103,64.2110105 C51.037922,60.9950718 54.0542092,55.7290537 54.7079222,54.7206728" id="Fill-1"></path>
                </g>
                <g id="symbol_smile" transform="translate(0.000000, 46.000000)" fill="#536DFE">
                    <path d="M44.9368334,21.1265433 C43.9513584,21.1265433 43.1525146,20.3276994 43.1525146,19.3422244 C43.1525146,18.3564891 43.9513584,17.5576453 44.9368334,17.5576453 C45.9223084,17.5576453 46.7211523,18.3564891 46.7211523,19.3422244 C46.7211523,20.3276994 45.9223084,21.1265433 44.9368334,21.1265433 M46.7130831,25.9349637 C46.6745596,26.2897451 46.4978196,26.6091264 46.2187839,26.8319385 C41.5196872,30.547122 36.5168268,32.8712917 31.3463367,33.7435386 C29.7908167,34.006436 28.1978143,34.1389259 26.613662,34.1389259 C23.8326755,34.1389259 21.0037948,33.7313047 18.20667,32.9277756 C12.1230668,31.1775553 7.82846779,28.0855169 6.26383752,26.8368841 C5.98115769,26.6091264 5.80103389,26.2723054 5.76927796,25.9117975 C5.74116615,25.5851279 5.83643394,25.2584583 6.0324357,24.9971226 L6.10141375,24.9122666 C6.57462916,24.3825672 7.37113035,24.3172333 7.92191352,24.7550487 C9.39101571,25.9151813 13.4138673,28.7919562 18.987033,30.3846983 C23.0130081,31.5344191 27.0288317,31.7816989 30.9350714,31.1158655 C35.6479637,30.3159805 40.2359147,28.1719347 44.5659138,24.7480207 C45.1328352,24.2995333 45.9644761,24.3914173 46.4199915,24.9458446 C46.6477492,25.2285244 46.7521273,25.5780999 46.7130831,25.9349637 M7.54891149,17.5576453 C8.5341262,17.5576453 9.33323033,18.3564891 9.33323033,19.3422244 C9.33323033,20.3276994 8.5341262,21.1265433 7.54891149,21.1265433 C6.5634365,21.1265433 5.76433236,20.3276994 5.76433236,19.3422244 C5.76433236,18.3564891 6.5634365,17.5576453 7.54891149,17.5576453 M53.8162599,54.7206728 C53.8331791,54.6949036 53.9034586,54.5913064 53.9310498,54.5491387 C60.6177553,47.190613 64.481567,38.6261429 63.3971801,28.3281114 C62.843794,23.0719844 60.9764412,18.1932845 58.1410531,14.0173797 L58.1410531,0 L48.9396423,5.03982222 C44.5227049,2.19558416 39.3748604,0.414909442 33.8842081,0.0661148045 C26.7771269,-0.385756458 20.1338906,1.50294048 14.6463618,5.03279427 L5.45770543,0 L5.45770543,14.0173797 L5.45848632,14.0173797 C2.03717533,19.0860946 0.0391547068,25.1944258 0.0391547068,31.7699856 C0.0391547068,31.7699856 -0.0186306735,32.9301182 0.188563753,34.8261034 C1.21959029,45.6259828 7.65511165,54.8479568 16.7622958,59.7547685 C25.5368236,64.8492526 35.5212003,65.9971514 55.8832586,64.2110105 C50.1848913,60.9950718 53.1694281,55.7290537 53.8162599,54.7206728" id="Fill-1"></path>
                </g>
                <g id="Group-12" transform="translate(69.000000, 76.000000)" fill="#536DFE">
                    <rect id="Rectangle-16" x="2.09302326" y="0" width="24.4186047" height="2.14285714" rx="1.07142857"></rect>
                    <rect id="Rectangle-16" x="5.58139535" y="6.42857143" width="24.4186047" height="2.14285714" rx="1.07142857"></rect>
                    <rect id="Rectangle-16" x="0" y="12.8571429" width="24.4186047" height="2.14285714" rx="1.07142857"></rect>
                </g>
                <g id="Group-12" transform="translate(31.000000, 19.000000)" fill="#2339B1">
                    <rect id="Rectangle-16" x="5.58139535" y="0" width="24.4186047" height="2.14285714" rx="1.07142857"></rect>
                    <rect id="Rectangle-16" x="0" y="6.42857143" width="24.4186047" height="2.14285714" rx="1.07142857"></rect>
                    <rect id="Rectangle-16" x="4.88372093" y="12.8571429" width="24.4186047" height="2.14285714" rx="1.07142857"></rect>
                </g>
            </g>
        </g>
    </g>
</svg>
