<?xml version="1.0" encoding="UTF-8"?>
<svg width="400px" height="178px" viewBox="0 0 400 178" version="1.1" xmlns="http://www.w3.org/2000/svg" xmlns:xlink="http://www.w3.org/1999/xlink">
    <!-- Generator: sketchtool 51 (57462) - http://www.bohemiancoding.com/sketch -->
    <title>C1AFC51E-A413-4070-B54D-E74AD5F9597C</title>
    <desc>Created with sketchtool.</desc>
    <defs>
        <polygon id="path-1" points="0.0173471823 0.124841833 108.631624 0.124841833 108.631624 110.55776 0.0173471823 110.55776"></polygon>
    </defs>
    <g id="Symbols" stroke="none" stroke-width="1" fill="none" fill-rule="evenodd">
        <g id="img_vote">
            <g id="Group-17" transform="translate(244.000000, 59.000000)">
                <g id="Group" transform="translate(39.000000, 0.000000)">
                    <g id="Group-3">
                        <mask id="mask-2" fill="white">
                            <use xlink:href="#path-1"></use>
                        </mask>
                        <g id="Clip-2"></g>
                        <path d="M76.7695898,36.0180849 C75.0852061,36.0180849 73.7198143,34.6608777 73.7198143,32.9865908 C73.7198143,31.3118618 75.0852061,29.9550968 76.7695898,29.9550968 C78.4539735,29.9550968 79.8193653,31.3118618 79.8193653,32.9865908 C79.8193653,34.6608777 78.4539735,36.0180849 76.7695898,36.0180849 M79.8055735,44.1874195 C79.7392837,44.7901805 79.4376429,45.3332402 78.9607122,45.7113478 C70.9289694,52.0237542 62.3780306,55.9719932 53.5405776,57.4543518 C50.8818673,57.9010052 48.1590918,58.1261008 45.4514429,58.1261008 C40.6981531,58.1261008 35.8625571,57.4331247 31.0816837,56.0679574 C20.6839735,53.0948378 13.343602,47.8411327 10.6693204,45.7201924 C10.1861612,45.3332402 9.87784694,44.760551 9.82356939,44.1485032 C9.77552041,43.5935032 9.93835306,43.038061 10.2738061,42.594061 L10.3912592,42.4503359 C11.2000837,41.5503956 12.5614714,41.4389534 13.5033204,42.1827861 C16.0143245,44.1542522 22.8902224,49.0413478 32.4159327,51.747802 C39.2971694,53.7006944 46.1610551,54.1212562 52.8376388,52.9895869 C60.8929612,51.631053 68.7347327,47.9883956 76.1356102,42.171288 C77.104598,41.4088817 78.5260469,41.5649892 79.3046184,42.5073837 C79.6939041,42.9872044 79.8723082,43.5815629 79.8055735,44.1874195 M12.8653367,29.9550968 C14.5497204,29.9550968 15.9155571,31.3118618 15.9155571,32.9865908 C15.9155571,34.6608777 14.5497204,36.0180849 12.8653367,36.0180849 C11.1809531,36.0180849 9.81556122,34.6608777 9.81556122,32.9865908 C9.81556122,31.3118618 11.1809531,29.9550968 12.8653367,29.9550968 M91.9463939,93.093312 C91.9753122,93.0495311 92.0949898,92.8739653 92.1425939,92.8023239 C103.571133,80.3000092 110.175643,65.7497223 108.322198,48.253292 C107.3759,39.3233199 104.184647,31.0345829 99.3383735,23.9398697 L99.3383735,0.124841833 L83.6112306,8.68731992 C76.0613122,3.85506096 67.2630102,0.830200398 57.8783327,0.237168526 C45.7308388,-0.530544622 34.3761531,2.67828406 24.9963694,8.67582191 L9.29147143,0.124841833 L9.29147143,23.9398697 L9.29280612,23.9398697 C3.44506735,32.5514355 0.0300306122,42.9292721 0.0300306122,54.1009135 C0.0300306122,54.1009135 -0.0687367347,56.0723797 0.284957143,59.2931486 C2.04764286,77.6422004 13.0473,93.3095629 28.6133898,101.646061 C43.6109,110.30185 60.6762959,112.251647 95.4793286,109.217499 C85.7396224,103.753292 90.8408224,94.8065151 91.9463939,93.093312" id="Fill-1" fill="#536DFE" mask="url(#mask-2)"></path>
                    </g>
                </g>
                <g id="Group" transform="translate(32.000000, 65.000000) rotate(15.000000) translate(-32.000000, -65.000000) translate(6.000000, 39.000000)">
                    <polygon id="Fill-1" fill="#605C6E" points="20.2900014 0 0 20.2900014 31.7099986 52 52 31.7099986 20.2911233 0"></polygon>
                    <path d="M25.7662482,36.5519431 L20.2536153,28.1630096 L33.3160356,34.6746163 L25.7662482,36.5519431 Z M28.1627012,20.2531532 L36.5519816,25.7659294 L34.6747035,33.315913 L28.1627012,20.2531532 Z M19.175155,26.1258021 L17.8967077,17.8967493 L26.1261116,19.1746648 L33.0765033,33.0769394 L19.175155,26.1258021 Z M16.2985075,16.2985075 L17.9763635,27.0048634 L25.1668525,38.0298507 L35.4735212,35.4734548 L38.0298507,25.167083 L26.9644747,17.9362957 L16.2985075,16.2985075 Z" id="Fill-2" fill="#FFFFFF"></path>
                </g>
            </g>
        </g>
    </g>
</svg>