<svg xmlns="http://www.w3.org/2000/svg" viewBox="0 0 231.36 269.86">
    <defs>
        <style>
        .cls-1 {
            fill: #fff;
        }

        .cls-2 {
            fill: #333;
        }

        .cls-3 {
            fill: #ff1744;
        }

        .cls-4 {
            fill: #d50000;
        }

        .cls-5 {
            fill: #f7d04a;
        }

        .cls-6 {
            fill: #f3b41b;
        }

        .cls-7 {
            fill: #fee7be;
        }

        @keyframes tougue {
            0% {
                transform: translate(-30%,5%) rotate(-58deg);
            }

            2% {
                transform:translate(-22%,3%) rotate(-41deg)
            }

            4% {
                transform:translate(-14%,1.5%) rotate(-29deg)
            }

            8% {
                transform:translate(-4%,0.5%) rotate(-10deg)
            }

            10% {
                transform:translate(0%,0%) rotate(0deg)
            }

            20% {
                transform:translate(0%,0%) rotate(0deg)
            }

            25% {
                transform:translate(0%,10%) rotate(0deg)
            }

            100% {
                transform:translate(0%,10%) rotate(0deg)
            }

        } 

        .tougue {
            transform-origin: center center;
            transform:translate(0%,10%) rotate(0deg);
            animation: tougue 5s linear infinite;

            /* transform: translate(-30%,7%) rotate(-58deg);   //start */


            background:#600;
        }
        </style>
    </defs>
    <title>bg under construction</title>
    <g>
        <g>
            <path class="cls-1" d="M195.82,232.43l.42-.62c24.34-26.79,38.41-58,34.46-95.47a113.91,113.91,0,0,0-19.14-52.1v-51l-33.5,18.35a115.37,115.37,0,0,0-124.85,0L19.75,33.21v51h0A115.14,115.14,0,0,0,0,148.88,78.09,78.09,0,0,0,.57,160a115.67,115.67,0,0,0,60.34,90.76c32,18.55,68.3,22.73,142.43,16.23C182.6,255.28,193.46,236.11,195.82,232.43Z"/>
            <path class="cls-2" d="M163.49,110.13a6.5,6.5,0,1,0-6.5-6.5A6.5,6.5,0,0,0,163.49,110.13Z"/>
            <path class="cls-2" d="M27.37,110.13a6.5,6.5,0,1,0-6.5-6.5A6.49,6.49,0,0,0,27.37,110.13Z"/>
            <g class="tougue" stroke="#f00" stroke-width="1">
                <path class="cls-3" d="M136.33,114.73c-8.14-3.67-18.33,1.29-22.75,11.08l13.17,5.95,5.65-11.57a1.23,1.23,0,1,1,2.21,1.07L129,132.77l14.07,6.35C147.49,129.33,144.47,118.41,136.33,114.73Z"/>
                <path class="cls-4" d="M134,119.62a1.24,1.24,0,0,0-1.64.57l-5.65,11.57,2.24,1,5.62-11.51A1.24,1.24,0,0,0,134,119.62Z"/>
            </g>
            <rect id="block" fill="#FFFFFF" transform="translate(124.431860, 170.669916) rotate(19.000000) translate(-124.431860, -170.669916) " x="94.2927308" y="135.669916" width="60.2782587" height="70"></rect>
            <g class="mouth">
                <path class="cls-2" d="M35,156.29a4,4,0,0,0,5.55.1c11.94-11.26,25-18.8,38.74-22.39a79.72,79.72,0,0,1,35.6-.92,98.86,98.86,0,0,1,34.24,13.82,4,4,0,0,0,5.36-.94l.18-.27a4,4,0,0,0,.54-2.78,4,4,0,0,0-1.7-2.61,105.76,105.76,0,0,0-37-15,90.85,90.85,0,0,0-25.22-1.42,85.07,85.07,0,0,0-13.93,2.4c-15.09,3.92-29.32,12.1-42.28,24.33a4,4,0,0,0-.11,5.64Z"/>
                <path class="cls-2" d="M155.2,142.91a4,4,0,0,0-1.7-2.61,105.76,105.76,0,0,0-37-15,90.85,90.85,0,0,0-25.22-1.42,85.07,85.07,0,0,0-13.93,2.4l-.23.07,2,7.64.1,0a79.72,79.72,0,0,1,35.6-.92,98.86,98.86,0,0,1,34.24,13.82,4,4,0,0,0,5.36-.94l.18-.27A4,4,0,0,0,155.2,142.91Z"/>
            </g>
            <path class="cls-5" d="M159.25,17.47A38.51,38.51,0,0,0,90.93,34.59a1.3,1.3,0,0,0,.23,1,1.32,1.32,0,0,0,.87.52l73.66,10.27a1.31,1.31,0,0,0,1-.27,1.33,1.33,0,0,0,.49-.89A38.32,38.32,0,0,0,159.25,17.47Z"/>
            <path class="cls-6" d="M101.49,36.06a38.54,38.54,0,0,1,37.93-32A39.46,39.46,0,0,0,134.19,3,38.51,38.51,0,0,0,90.93,34.59a1.3,1.3,0,0,0,.23,1,1.32,1.32,0,0,0,.87.52l10.57,1.47a1.25,1.25,0,0,1-.87-.52A1.29,1.29,0,0,1,101.49,36.06Z"/>
            <path class="cls-6" d="M163.4,45.73a1.31,1.31,0,0,0-1.1-1.07L96.45,35.49a1.31,1.31,0,0,0-1.36.72,1.33,1.33,0,0,0,.28,1.52,58.28,58.28,0,0,0,32.18,15.43,58.19,58.19,0,0,0,35.17-6A1.29,1.29,0,0,0,163.4,45.73Z"/>
            <path class="cls-6" d="M141.8,2,127.85,0a1.3,1.3,0,0,0-1.47,1.11L120.9,40.39A1.31,1.31,0,0,0,122,41.86L136,43.8a1.3,1.3,0,0,0,1.48-1.11l5.47-39.26A1.3,1.3,0,0,0,141.8,2Z"/>
            <path class="cls-5" d="M139.47,1.63,130.17.34a1.3,1.3,0,0,0-1.47,1.11l-5.47,39.26a1.3,1.3,0,0,0,1.11,1.47l9.3,1.3a1.31,1.31,0,0,0,1.47-1.11L140.58,3.1A1.31,1.31,0,0,0,139.47,1.63Z"/>
            <path class="cls-5" d="M170.31,38.58,90.41,27.45a1.31,1.31,0,0,0-1.48,1.11l-1,7.23A1.29,1.29,0,0,0,89,37.26l79.9,11.14a1.29,1.29,0,0,0,1.47-1.11l1-7.23A1.31,1.31,0,0,0,170.31,38.58Z"/>
            <rect class="cls-7" x="145.04" y="33.28" width="9.91" height="14.95" transform="translate(88.93 183.69) rotate(-82.07)"/>
        </g>
    </g>
</svg>
