<?xml version="1.0" encoding="UTF-8"?>
<svg width="78px" height="86px" viewBox="0 0 78 86" version="1.1" xmlns="http://www.w3.org/2000/svg" xmlns:xlink="http://www.w3.org/1999/xlink">
	<!-- Generator: Sketch 51.1 (57501) - http://www.bohemiancoding.com/sketch -->
	<title>bi-hubby</title>
	<desc>Created with Sketch.</desc>
	<defs>
		<linearGradient x1="0%" y1="0%" x2="100%" y2="100%" id="linearGradient-1">
			<stop stop-color="#FF606B" offset="0%"></stop>
			<stop stop-color="#FF1F90" offset="100%"></stop>
		</linearGradient>
		<style>
			g { display: none }
			g:target g,
			g:target { display: inline }
		</style>
	</defs>
	<g id="white" fill="#FFFFFF">
		<g id="Group">
			<path d="M73.5451344,24.4269565 L75.4585524,7.23310676 L63.54692,12.1525935 C51.726388,2.47351657 35.3724448,0.629371249 21.7133056,7.43524409 L11.1919288,0 L9.27851081,17.1938497 C4.24199319,23.1411756 1.09577156,30.4710467 0.246693542,38.2356149 C0.0773918919,39.484935 -0.00354623454,40.7447588 0.00448873508,42.0055978 C-0.192642038,55.09142 6.11389792,67.4140712 16.8183465,74.8590019 C26.6300633,82.1651704 38.3745743,84.9804807 62.4715306,85.6575189 L63.0043813,85.6721312 C60.7429625,83.3752763 59.941716,80.0033354 60.926264,76.9266476 C61.3022381,75.9107109 61.8200975,74.9537491 62.4642645,74.084548 C62.6434961,73.8677984 62.8324158,73.6559195 63.0334458,73.4537822 L63.244164,73.2443386 C63.7624823,72.7767439 64.270305,72.3034666 64.7676322,71.8245066 C72.8354744,64.0312602 77.9217753,54.5892552 77.9992808,42.7142961 C78.0380626,36.3423384 76.5078543,30.059779 73.5451344,24.4269565 Z M8.94669023,23.623278 C9.1572392,22.471967 10.2303704,21.6902173 11.3839788,21.8477732 C12.5375871,22.0053289 13.3644603,23.0465747 13.2619677,24.2126437 C13.1594751,25.3787126 12.1637956,26.2579939 11.000587,26.2096615 C10.3721374,26.1771615 9.78763886,25.8755232 9.39498251,25.3810681 C9.00232617,24.8866128 8.83913144,24.2467132 8.94669023,23.623278 Z M57.9786314,37.473338 C57.8836001,37.9014368 57.6218801,38.2733718 57.252017,38.5059432 C51.0128212,42.4171786 44.5919718,44.5822398 38.1662782,44.9402421 C36.2226641,45.0489907 34.2734137,44.9944108 32.3388306,44.7770711 C28.8691788,44.3730675 25.4728251,43.4828234 22.2485782,42.1322381 C17.1363234,39.9984082 12.4742331,36.9065624 8.51072157,33.021446 C8.19365152,32.7030815 8.01881463,32.2688556 8.02631195,31.8183636 C8.04111321,31.4146996 8.20320486,31.0306458 8.48165699,30.7394861 L8.57611687,30.6445059 C9.22025868,30.0612665 10.2057033,30.0869478 10.8189334,30.7029553 C14.4973529,34.2902861 18.815375,37.1481949 23.546796,39.1269674 C28.1226197,41.0603961 33.074143,41.9279392 38.0306435,41.6646433 C43.8895778,41.3309949 49.7775766,39.3315402 55.5275188,35.7247284 C56.0858603,35.3736727 56.7992974,35.3943053 57.3366492,35.7770483 C57.8740012,36.1597914 58.1300345,36.8296897 57.9858976,37.4757734 L57.9786314,37.473338 Z M58.860257,29.5315328 C58.649708,30.6828438 57.5765767,31.4645935 56.4229685,31.3070378 C55.2693601,31.1494819 54.4424868,30.1082361 54.5449795,28.9421673 C54.647472,27.7760983 55.6431516,26.896817 56.8063602,26.9451492 C57.4348098,26.9776494 58.0193083,27.2792876 58.4119646,27.7737429 C58.804621,28.268198 58.9678158,28.9080976 58.860257,29.5315328 Z" id="Shape"></path>
		</g>
	</g>
	<g id="pink" fill="url(#linearGradient-1)">
		<g id="Group">
			<path d="M73.545,24.52 L75.459,7.26 L63.547,12.2 C51.727,2.483 35.372,0.632 21.713,7.464 L11.192,0 L9.279,17.26 C4.23551836,23.246232 1.09096292,30.6000075 0.247,38.382 C0.0774415253,39.6360819 -0.00375856971,40.9005312 0.004,42.166 C-0.193,55.302 6.114,67.672 16.818,75.146 C26.63,82.48 38.375,85.306 62.472,85.986 L63.004,86 C60.7400678,83.6837124 59.9406528,80.3063959 60.926,77.221 C61.302,76.201 61.82,75.241 62.464,74.368 C62.644,74.15 62.832,73.938 63.034,73.735 L63.244,73.525 C63.762,73.055 64.27,72.58 64.768,72.099 C72.835,64.276 77.922,54.799 77.999,42.878 C78.039139,36.4863683 76.5097237,30.1825949 73.545,24.52 Z M9.03,23.638 C9.21939253,22.5829252 10.2065745,21.8645032 11.268765,22.0087381 C12.3309555,22.1529729 13.0908149,23.1086257 12.992,24.176 C12.8973472,25.2401461 11.9834308,26.0422443 10.916,25.998 C10.3393963,25.9680692 9.80316106,25.6928288 9.44270776,25.2417844 C9.08225446,24.79074 8.93204091,24.2070094 9.03,23.638 Z M57.953,37.362 C57.8597276,37.7943971 57.598129,38.171862 57.226,38.411 C50.987,42.383 44.566,44.581 38.141,44.945 C36.197,45.055 34.248,45 32.313,44.779 C28.8391495,44.3675198 25.4416633,43.4630948 22.223,42.093 C17.0945217,39.9152165 12.4310412,36.7745467 8.485,32.841 C8.16672021,32.5151283 7.99207187,32.0754466 8,31.62 C8.015,31.21 8.177,30.82 8.456,30.524 L8.55,30.428 C9.18971522,29.8355166 10.1853173,29.861705 10.793,30.487 C14.4554471,34.1189218 18.7747375,37.021751 23.521,39.041 C28.0865409,41.0025512 33.043058,41.884417 38.005,41.618 C43.864,41.28 49.752,39.249 55.502,35.587 C56.0586514,35.230145 56.7771831,35.2511849 57.312,35.64 C57.848,36.028 58.104,36.709 57.96,37.365 L57.953,37.362 Z M57.97,29.362 C57.7806075,30.4170748 56.7934255,31.1354968 55.731235,30.9912619 C54.6690445,30.8470271 53.9091851,29.8913743 54.008,28.824 C54.1026528,27.7598539 55.0165692,26.9577557 56.084,27.002 C56.6606037,27.0319308 57.1968389,27.3071712 57.5572922,27.7582156 C57.9177455,28.20926 58.0679591,28.7929906 57.97,29.362 Z" id="Shape"></path>
		</g>
	</g>
	<g id="white#alert" transform="translate(1.000000, 0.000000)" fill="#FFFFFF">
		<g id="Group">
			<path d="M53.5450799,27.7955803 C52.3437583,27.7955803 51.3693706,26.7386526 51.3693706,25.4347985 C51.3693706,24.1305999 52.3437583,23.0740166 53.5450799,23.0740166 C54.746719,23.0740166 55.7207893,24.1305999 55.7207893,25.4347985 C55.7207893,26.7386526 54.746719,27.7955803 53.5450799,27.7955803 M30.894851,47.1057772 C27.6539805,47.1057772 25.0259903,42.805056 25.0259903,37.5004429 C25.0259903,32.1954854 27.6539805,27.8954529 30.894851,27.8954529 C34.136039,27.8954529 36.7630771,32.1954854 36.7630771,37.5004429 C36.7630771,42.805056 34.136039,47.1057772 30.894851,47.1057772 M8.15829206,27.7955803 C6.95665305,27.7955803 5.98258276,26.7386526 5.98258276,25.4347985 C5.98258276,24.1305999 6.95665305,23.0740166 8.15829206,23.0740166 C9.35961368,23.0740166 10.3340014,24.1305999 10.3340014,25.4347985 C10.3340014,26.7386526 9.35961368,27.7955803 8.15829206,27.7955803 M64.5820728,72.3993766 C64.6027031,72.3652821 64.6883985,72.22856 64.7223592,72.172769 C72.8751593,62.4365672 77.5871332,51.105503 76.2645684,37.480124 C75.5897971,30.5258908 73.3128404,24.0710208 69.8558271,18.5459992 L69.8558271,0 L58.6360861,6.66804642 C53.2499758,2.90491539 46.9729513,0.549299352 40.277924,0.0874746303 C31.6119039,-0.510383472 23.5114732,1.98849809 16.8202545,6.65909233 L5.61606575,0 L5.61606575,18.5459992 L5.61701793,18.5459992 C1.44524212,25.2522727 -0.99104448,33.3343775 -0.99104448,42.0339706 C-0.99104448,42.0339706 -1.0611877,43.5692537 -0.808862547,46.0774337 C0.448319739,60.3667935 8.29547319,72.5677824 19.4003189,79.0598464 C30.09954,85.8005588 42.2739904,87.3193113 67.1027852,84.9561186 C60.1541631,80.7008566 63.7936757,73.7335369 64.5820728,72.3993766" id="Fill-1"></path>
		</g>
	</g>
</svg>
