<svg xmlns="http://www.w3.org/2000/svg" width="209" height="184" viewBox="0 0 209 184">
    <defs>
        <linearGradient id="fill_pink" x1="14.979%" x2="81.447%" y1="0%" y2="100%">
            <stop offset="0%" stop-color="#ff606b"/>
            <stop offset="100%" stop-color="#ff1f90"/>
        </linearGradient>
    </defs>
	<g id="pink">
		<g fill="none" fill-rule="evenodd">
			<path fill="none" d="M-528-239H752v720H-528z"/>
			<path fill="url(#fill_pink)" fill-rule="nonzero" d="M413.15 218.71l5.519-49.772-34.36 14.24c-34.098-28.018-81.273-33.356-120.674-13.655L233.285 148l-5.52 49.772c-14.528 17.216-23.604 38.434-26.053 60.91a77.855 77.855 0 0 0-.7 10.914c-.568 37.88 17.624 73.551 48.502 95.103 28.303 21.15 62.182 29.299 131.692 31.259l1.537.042c-6.523-6.649-8.834-16.41-5.994-25.316a33.164 33.164 0 0 1 4.436-8.227 26.798 26.798 0 0 1 1.642-1.826l.608-.606a184.575 184.575 0 0 0 4.395-4.11c23.272-22.56 37.944-49.892 38.168-84.267a112.582 112.582 0 0 0-12.849-52.938zm-185.053-2.385a6.504 6.504 0 0 1 7.273-5.265 6.5 6.5 0 0 1 5.604 7.012 6.503 6.503 0 0 1-6.748 5.922 6.565 6.565 0 0 1-4.792-2.457 6.553 6.553 0 0 1-1.337-5.212zm139.768 39.78a4.77 4.77 0 0 1-2.093 3.006c-17.969 11.386-36.461 17.689-54.967 18.73a99.13 99.13 0 0 1-16.784-.474 106.436 106.436 0 0 1-29.06-7.7 125.592 125.592 0 0 1-39.565-26.522 4.877 4.877 0 0 1-1.395-3.502 4.825 4.825 0 0 1 1.311-3.14l.272-.277a4.64 4.64 0 0 1 6.46.17 117.275 117.275 0 0 0 36.656 24.523 93.418 93.418 0 0 0 41.714 7.387c16.874-.971 33.832-6.792 50.392-17.291a4.639 4.639 0 0 1 5.21.152 4.817 4.817 0 0 1 1.87 4.945l-.021-.007zm3.038-23.43a6.504 6.504 0 0 1-7.273 5.265 6.5 6.5 0 0 1-5.604-7.012 6.503 6.503 0 0 1 6.748-5.922c1.876.096 3.62.99 4.792 2.457a6.553 6.553 0 0 1 1.337 5.212z" transform="translate(-201 -148)"/>
		</g>
	</g>
</svg>
