<svg xmlns="http://www.w3.org/2000/svg" width="22" height="22" viewBox="0 0 22 22">
    <path fill="#3E3E3E" fill-rule="nonzero" d="M22 11c0 6.075-4.925 11-11 11S0 17.075 0 11 4.925 0 11 0s11 4.925 11 11zm-5.967-3.533c.281-.171.525-.385.73-.64.207-.257.36-.546.46-.867a5.264 5.264 0 0 1-1.718.663 2.664 2.664 0 0 0-.889-.633 2.658 2.658 0 0 0-1.084-.226c-.483 0-.932.123-1.35.37a2.734 2.734 0 0 0-.986.986 2.636 2.636 0 0 0-.362 1.356c0 .211.02.417.06.618a7.64 7.64 0 0 1-3.119-.844A7.716 7.716 0 0 1 5.32 6.261a2.69 2.69 0 0 0-.361 1.356c0 .463.108.892.324 1.289.215.397.51.72.881.972a2.543 2.543 0 0 1-1.236-.347v.045c.01.422.108.822.294 1.198.186.377.445.693.776.95.332.256.698.424 1.1.504a2.794 2.794 0 0 1-1.205.046c.17.542.487.987.95 1.333.461.347.984.53 1.566.55a5.618 5.618 0 0 1-1.567.844c-.573.2-1.17.301-1.793.301-.221 0-.437-.01-.648-.03a7.49 7.49 0 0 0 1.959.89 7.716 7.716 0 0 0 2.2.316c1.185 0 2.285-.231 3.3-.693a7.323 7.323 0 0 0 2.41-1.809 8.083 8.083 0 0 0 1.478-2.47 7.832 7.832 0 0 0 .497-2.713v-.347A5.683 5.683 0 0 0 17.6 7.03a5.498 5.498 0 0 1-1.567.437z"/>
</svg>
