<?xml version="1.0" encoding="UTF-8"?>
<svg width="20px" height="20px" viewBox="0 0 20 20" version="1.1" xmlns="http://www.w3.org/2000/svg" xmlns:xlink="http://www.w3.org/1999/xlink">
    <!-- Generator: sketchtool 50.2 (55047) - http://www.bohemiancoding.com/sketch -->
    <title>C00A4A6A-5256-4CC2-BF37-5363701C325A</title>
    <desc>Created with sketchtool.</desc>
    <defs></defs>
    <g id="Page-1" stroke="none" stroke-width="1" fill="none" fill-rule="evenodd">
        <g id="1920.스테이킹_논의필요" transform="translate(-40.000000, -1020.000000)" fill="#3357A2" fill-rule="nonzero">
            <g id="Group-29">
                <g id="Group-22" transform="translate(40.000000, 1020.000000)">
                    <path d="M20,10 C20,4.4772549 15.5227124,0 10,0 C4.4772549,0 0,4.4772549 0,10 C0,15.5227124 4.4772549,20 10,20 C15.5227124,20 20,15.5227124 20,10 Z M7.4910645,10.000506 L7.4910645,8.21243321 L8.58683431,8.21243321 L8.58683431,7.1310762 C8.58683431,5.67257407 9.02260778,4.62181373 10.6195583,4.62181373 L12.5189028,4.62181373 L12.5189028,6.40564208 L11.1819018,6.40564208 C10.511676,6.40564208 10.3596088,6.85075945 10.3596088,7.31709904 L10.3596088,8.21240268 L12.4203645,8.21240268 L12.1392232,10.000506 L10.3596699,10.000506 L10.3596699,15.3936111 L8.58683431,15.3936111 L8.58683431,10.000506 L7.4910645,10.000506 Z" id="Shape"></path>
                </g>
            </g>
        </g>
    </g>
</svg>