<?xml version="1.0" encoding="UTF-8"?>
<svg width="20px" height="20px" viewBox="0 0 20 20" version="1.1" xmlns="http://www.w3.org/2000/svg" xmlns:xlink="http://www.w3.org/1999/xlink">
    <!-- Generator: sketchtool 50.2 (55047) - http://www.bohemiancoding.com/sketch -->
    <title>D728335B-FC76-46B0-B38E-BF8DD1059EDE</title>
    <desc>Created with sketchtool.</desc>
    <defs></defs>
    <g id="Page-1" stroke="none" stroke-width="1" fill="none" fill-rule="evenodd">
        <g id="1920.스테이킹_논의필요" transform="translate(-68.000000, -1020.000000)" fill="#00ABE5" fill-rule="nonzero">
            <g id="Group-29">
                <g id="Group-22" transform="translate(40.000000, 1020.000000)">
                    <path d="M48,10 C48,15.5227124 43.5227124,20 38,20 C32.4772549,20 28,15.5227124 28,10 C28,4.4772549 32.4772549,1.08357767e-13 38,1.08357767e-13 C43.5227124,1.08357767e-13 48,4.4772549 48,10 Z M42.5753425,6.78793544 C42.8310515,6.63268352 43.0525105,6.43862154 43.239726,6.20574366 C43.4269416,5.97286578 43.5662096,5.71031133 43.6575342,5.41807243 C43.1735136,5.71031133 42.6529708,5.91122256 42.0958904,6.02081215 C41.8675788,5.77423558 41.5981751,5.58245667 41.2876712,5.44546969 C40.9771674,5.3084827 40.6484036,5.23999023 40.3013699,5.23999023 C39.8630115,5.23999023 39.4543398,5.35186126 39.0753425,5.57560667 C38.6963451,5.79935208 38.3972614,6.09843585 38.1780822,6.47286695 C37.958903,6.84729804 37.8493151,7.25825284 37.8493151,7.70574366 C37.8493151,7.89752544 37.8675797,8.08473818 37.9041096,8.26738749 C36.8995384,8.2125927 35.9543423,7.95688749 35.0684932,7.50026421 C34.2009089,7.05277339 33.4566241,6.45003969 32.8356164,5.69204503 C32.6164373,6.07560859 32.5068493,6.48656339 32.5068493,6.92492174 C32.5068493,7.34501517 32.6050218,7.73542222 32.8013699,8.09615462 C32.9977179,8.45688702 33.2648385,8.75140462 33.6027397,8.97971626 C33.2009112,8.9705838 32.8264858,8.86556202 32.4794521,8.66464777 L32.4794521,8.70574366 C32.4885845,9.08930722 32.5776247,9.45231729 32.7465753,9.79478475 C32.915526,10.1372522 33.1506834,10.4249206 33.4520548,10.6577985 C33.7534262,10.8906763 34.0867562,11.0436428 34.4520548,11.1167026 C34.2420081,11.1714974 34.0273984,11.1988943 33.8082192,11.1988943 C33.6529673,11.1988943 33.5022838,11.1851959 33.3561644,11.1577985 C33.5114163,11.6509516 33.7990847,12.0550572 34.2191781,12.3701272 C34.6392715,12.6851973 35.1141526,12.8518623 35.6438356,12.8701272 C35.2146097,13.198896 34.7397286,13.4546012 34.2191781,13.6372505 C33.6986275,13.8198998 33.155254,13.9112231 32.5890411,13.9112231 C32.3881268,13.9112231 32.1917818,13.9020908 32,13.8838259 C32.5570804,14.239992 33.1506818,14.5093957 33.7808219,14.692045 C34.429227,14.8838268 35.095887,14.9797163 35.7808219,14.9797163 C36.8584529,14.9797163 37.8584429,14.7696727 38.7808219,14.3495793 C39.6210088,13.9568832 40.3515951,13.4089435 40.9726027,12.7057437 C41.5479481,12.0482061 41.9954322,11.2993552 42.3150685,10.4591683 C42.6164399,9.6372464 42.7671233,8.81533681 42.7671233,7.99341489 L42.7671233,7.6783464 C43.251144,7.32218023 43.6620988,6.89296078 44,6.39067517 C43.5525092,6.59158941 43.0776281,6.72400818 42.5753425,6.78793544 Z" id="Shape"></path>
                </g>
            </g>
        </g>
    </g>
</svg>