<?xml version="1.0" encoding="UTF-8"?>
<svg width="20px" height="20px" viewBox="0 0 20 20" version="1.1" xmlns="http://www.w3.org/2000/svg" xmlns:xlink="http://www.w3.org/1999/xlink">
    <!-- Generator: sketchtool 50.2 (55047) - http://www.bohemiancoding.com/sketch -->
    <title>E63F15E8-8CA9-4E21-8A7C-DCF1FE4A4B60</title>
    <desc>Created with sketchtool.</desc>
    <defs></defs>
    <g id="Page-1" stroke="none" stroke-width="1" fill="none" fill-rule="evenodd">
        <g id="1920.스테이킹_논의필요" transform="translate(-96.000000, -1020.000000)" fill="#00B0E7" fill-rule="nonzero">
            <g id="Group-29">
                <g id="Group-22" transform="translate(40.000000, 1020.000000)">
                    <path d="M64.9863482,12.9423036 L67.3858582,14.863787 C67.851045,15.1419881 68.186787,14.9979492 68.3026602,14.3956719 L69.9620246,5.92026351 C70.1319145,5.18200585 69.7023848,4.84716678 69.2573616,5.06615344 L59.5136007,9.13843903 C58.8484978,9.42758583 58.8523754,9.82977098 59.3923664,10.0089768 L61.8928351,10.854873 L67.6816861,6.89642977 C67.9549649,6.71681284 68.2057789,6.81337876 67.9999199,7.01140508 L63.3093094,11.5993618 L63.3428097,11.6261883 L63.1600342,14.5799561 C63.4327615,14.5799561 63.5532615,14.4454155 63.7054887,14.2857711 L64.9863482,12.9423036 Z M76,10 C76,15.5227124 71.5227124,20 66,20 C60.4772549,20 56,15.5227124 56,10 C56,4.4772549 60.4772549,0 66,0 C71.5227124,0 76,4.4772549 76,10 Z" id="Combined-Shape"></path>
                </g>
            </g>
        </g>
    </g>
</svg>