<?xml version="1.0" encoding="UTF-8"?>
<svg width="350px" height="200px" viewBox="0 0 350 200" version="1.1" xmlns="http://www.w3.org/2000/svg" xmlns:xlink="http://www.w3.org/1999/xlink">
    <!-- Generator: sketchtool 50.2 (55047) - http://www.bohemiancoding.com/sketch -->
    <title>9BC2FDB3-DB0D-440B-A397-27E023972E26</title>
    <desc>Created with sketchtool.</desc>
    <defs></defs>
    <g id="Page-1" stroke="none" stroke-width="1" fill="none" fill-rule="evenodd">
        <g id="1920.계정생성4단계" transform="translate(-787.000000, -534.000000)">
            <g id="Group-18" transform="translate(787.000000, 534.000000)">
                <g id="flags" fill-rule="nonzero">
                    <path d="M127.771429,0 C127.037018,0.609863953 126.302883,1.2153404 125.568473,1.81642933 C90.1697291,30.6481316 46.5525837,47.6469924 0.905414778,50.4015263 L0,50.4563702 L24.2325123,74.5876777 L35.2472906,46.0688598 L61.6827586,65.8126568 L70.4945813,35.1000836 L99.1330049,54.8438807 L101.335961,19.743797 L127.771429,32.9063284 L127.771429,0 Z" id="Shape" fill="#93CAE2"></path>
                    <g id="Group" transform="translate(0.000000, 67.862559)" fill="#FBCC34">
                        <path d="M0.116871795,2.19641917 C0.904102564,2.68402422 1.69353846,3.16943286 2.48738462,3.64605582 C40.0735192,26.4973263 84.0969744,36.5646135 127.926103,32.3312902 L128.788308,32.2456298 L110.410769,59.3033175 L94.9748718,32.9462875 L72.9235897,57.1068984 L61.8979487,28.5534492 L35.4364103,50.5176409 L28.8210256,17.5713533 L4.56461538,35.1427067 L0.119076923,2.19641917" id="Shape"></path>
                        <ellipse id="Oval" cx="112.615897" cy="4.39283834" rx="4.41025641" ry="4.39283834"></ellipse>
                    </g>
                    <ellipse id="Oval" fill="#06AAE9" cx="11.0571429" cy="118.606635" rx="4.3" ry="4.27962085"></ellipse>
                    <ellipse id="Oval" fill="#ED1C24" cx="28.8714286" cy="15.2843602" rx="4.3" ry="4.27962085"></ellipse>
                    <polygon id="Shape" fill="#FBCC34" points="0.614285714 21.3803755 3.66790108 18.3412322 7.98571429 22.6385819 4.93209892 25.6777251"></polygon>
                    <polygon id="Shape" fill="#FF1D25" points="88.4571429 6.72511848 92.7571429 6.72511848 92.7571429 13.450237 88.4571429 13.450237"></polygon>
                    <polygon id="Shape" fill="#06AAE9" points="58.3571429 4.90872404 62.6749561 0.611374408 65.7285714 3.65051766 61.4107582 7.9478673"></polygon>
                    <g id="Group" transform="translate(38.085714, 29.345972)" fill="#7AC943">
                        <polygon id="Shape" points="0.250906889 4.49488578 4.67162099 0.0935402844 7.79800925 3.20623081 3.37729515 7.6075763"></polygon>
                        <polygon id="Shape" points="77.6236278 12.0113979 80.7500161 8.89870735 85.1707302 13.3000528 82.0443419 16.4127434"></polygon>
                    </g>
                    <polygon id="Shape" fill="#FF1D25" points="77.4 59.3033175 81.7 59.3033175 81.7 66.028436 77.4 66.028436"></polygon>
                    <polygon id="Shape" fill="#7AC943" points="89.0714286 86.2215203 93.3892418 81.9241706 96.4428571 84.9633139 92.1250439 89.2606635"></polygon>
                    <polygon id="Shape" fill="#06AAE9" points="38.0857143 73.9585745 41.1393297 70.9194313 45.4571429 75.2167809 42.4035275 78.2559242"></polygon>
                    <polygon id="Shape" fill="#7AC943" points="52.8285714 116.161137 57.1285714 116.161137 57.1285714 122.886256 52.8285714 122.886256"></polygon>
                    <polygon id="Shape" fill="#06AAE9" points="18.4285714 104.527295 21.4821868 101.488152 25.8 105.785501 22.7463846 108.824645"></polygon>
                    <polygon id="Shape" fill="#FF1D25" points="20.8857143 125.960857 25.2035275 121.663507 28.2571429 124.70265 23.9393297 129"></polygon>
                    <polygon id="Shape" fill="#06AAE9" points="89.0714286 123.515359 93.3892418 119.218009 96.4428571 122.257153 92.1250439 126.554502"></polygon>
                </g>
                <g id="flags" transform="translate(285.500000, 135.500000) scale(-1, 1) translate(-285.500000, -135.500000) translate(221.000000, 71.000000)" fill-rule="nonzero">
                    <path d="M127.771429,0 C127.037018,0.609863953 126.302883,1.2153404 125.568473,1.81642933 C90.1697291,30.6481316 46.5525837,47.6469924 0.905414778,50.4015263 L0,50.4563702 L24.2325123,74.5876777 L35.2472906,46.0688598 L61.6827586,65.8126568 L70.4945813,35.1000836 L99.1330049,54.8438807 L101.335961,19.743797 L127.771429,32.9063284 L127.771429,0 Z" id="Shape" fill="#50E3C2"></path>
                    <g id="Group" transform="translate(0.000000, 67.862559)">
                        <path d="M0.116871795,2.19641917 C0.904102564,2.68402422 1.69353846,3.16943286 2.48738462,3.64605582 C40.0735192,26.4973263 84.0969744,36.5646135 127.926103,32.3312902 L128.788308,32.2456298 L110.410769,59.3033175 L94.9748718,32.9462875 L72.9235897,57.1068984 L61.8979487,28.5534492 L35.4364103,50.5176409 L28.8210256,17.5713533 L4.56461538,35.1427067 L0.119076923,2.19641917" id="Shape" fill="#E72D44"></path>
                        <ellipse id="Oval" fill="#FBCC34" cx="112.615897" cy="4.39283834" rx="4.41025641" ry="4.39283834"></ellipse>
                    </g>
                    <ellipse id="Oval" fill="#06AAE9" cx="11.0571429" cy="118.606635" rx="4.3" ry="4.27962085"></ellipse>
                    <ellipse id="Oval" fill="#ED1C24" cx="28.8714286" cy="15.2843602" rx="4.3" ry="4.27962085"></ellipse>
                    <polygon id="Shape" fill="#FBCC34" points="0.614285714 21.3803755 3.66790108 18.3412322 7.98571429 22.6385819 4.93209892 25.6777251"></polygon>
                    <polygon id="Shape" fill="#FF1D25" points="88.4571429 6.72511848 92.7571429 6.72511848 92.7571429 13.450237 88.4571429 13.450237"></polygon>
                    <polygon id="Shape" fill="#06AAE9" points="58.3571429 4.90872404 62.6749561 0.611374408 65.7285714 3.65051766 61.4107582 7.9478673"></polygon>
                    <g id="Group" transform="translate(38.085714, 29.345972)" fill="#7AC943">
                        <polygon id="Shape" points="0.250906889 4.49488578 4.67162099 0.0935402844 7.79800925 3.20623081 3.37729515 7.6075763"></polygon>
                        <polygon id="Shape" points="77.6236278 12.0113979 80.7500161 8.89870735 85.1707302 13.3000528 82.0443419 16.4127434"></polygon>
                    </g>
                    <polygon id="Shape" fill="#FF1D25" points="77.4 59.3033175 81.7 59.3033175 81.7 66.028436 77.4 66.028436"></polygon>
                    <polygon id="Shape" fill="#7AC943" points="89.0714286 86.2215203 93.3892418 81.9241706 96.4428571 84.9633139 92.1250439 89.2606635"></polygon>
                    <polygon id="Shape" fill="#06AAE9" points="38.0857143 73.9585745 41.1393297 70.9194313 45.4571429 75.2167809 42.4035275 78.2559242"></polygon>
                    <polygon id="Shape" fill="#7AC943" points="52.8285714 116.161137 57.1285714 116.161137 57.1285714 122.886256 52.8285714 122.886256"></polygon>
                    <polygon id="Shape" fill="#06AAE9" points="18.4285714 104.527295 21.4821868 101.488152 25.8 105.785501 22.7463846 108.824645"></polygon>
                    <polygon id="Shape" fill="#FF1D25" points="20.8857143 125.960857 25.2035275 121.663507 28.2571429 124.70265 23.9393297 129"></polygon>
                    <polygon id="Shape" fill="#06AAE9" points="89.0714286 123.515359 93.3892418 119.218009 96.4428571 122.257153 92.1250439 126.554502"></polygon>
                </g>
                <g id="symbol_complete2" transform="translate(112.000000, 41.000000)" fill="#536DFE">
                    <path d="M91.7556859,49.8747822 C91.6811017,50.5570522 91.3412182,51.1722464 90.8051132,51.5997288 C81.7684155,58.7452923 72.1475587,63.213835 62.204338,64.8917284 C59.2124618,65.3977995 56.1490048,65.652587 53.1030675,65.652587 C47.7545319,65.652587 42.3143928,64.8677013 36.9348221,63.3224575 C25.2361205,59.9576605 16.9773007,54.0109498 13.9684052,51.6102407 C13.4252923,51.1722464 13.0784009,50.5235143 13.0173319,49.8307325 C12.9632709,49.202023 13.1464777,48.5738141 13.523403,48.071247 L13.6560527,47.9085634 C14.5660797,46.8899139 16.0973076,46.7637716 17.157504,47.6062222 C19.9826922,49.8377404 27.7184217,55.3694828 38.4360162,58.4324393 C46.1787536,60.6434343 53.9009679,61.118971 61.412945,59.8380255 C70.4766731,58.3002902 79.299129,54.1776379 87.6260257,47.592707 C88.716256,46.7302337 90.3155607,46.9064325 91.1920498,47.9731363 C91.6300441,48.5162492 91.8302701,49.1885078 91.7556859,49.8747822 M17.7651898,37.0893543 L14.9169756,34.9969931 C14.5650785,34.7387016 14.3348187,34.3587729 14.2687441,33.927286 C14.2026696,33.4952985 14.3082888,33.0638115 14.5670808,32.7119144 C14.8253723,32.3605179 15.205301,32.1297575 15.6372885,32.0636829 C16.0682748,31.9981089 16.4997618,32.1032276 16.8521594,32.3620196 L21.640563,35.8789884 C22.0640409,36.1898392 22.307816,36.6698809 22.307816,37.1959746 C22.307816,37.7220683 22.0645415,38.2026105 21.640563,38.5144624 L16.8521594,42.0309307 C16.5688397,42.2391657 16.2334613,42.3487894 15.8880715,42.3487894 C15.8049777,42.3487894 15.7213834,42.342282 15.6372885,42.3292673 C15.205301,42.2631928 14.8253723,42.0329329 14.5670808,41.6810358 C14.3082888,41.3291387 14.2026696,40.8971512 14.2687441,40.4656643 C14.3348187,40.0341774 14.5650785,39.6542487 14.9169756,39.3954566 L17.7651898,37.3040966 C17.80974,37.2705587 17.8192508,37.2270096 17.8192508,37.1964751 C17.8192508,37.1654401 17.80974,37.121891 17.7651898,37.0893543 M83.1389622,35.8789884 L87.9273657,32.3620196 C88.2792628,32.1032276 88.7107498,31.9976084 89.1422367,32.0636829 C89.5742242,32.1297575 89.9541529,32.3605179 90.2129449,32.7129156 C90.745546,33.4377335 90.5893697,34.4628904 89.8630501,34.9969931 L87.0143354,37.0893543 C86.9692846,37.121891 86.9602744,37.1654401 86.9602744,37.1964751 C86.9602744,37.2270096 86.9692846,37.2705587 87.0143354,37.3040966 L89.8625495,39.3954566 C90.5888692,39.9295593 90.745546,40.9547162 90.2124444,41.6810358 C89.9536523,42.0329329 89.5742242,42.2631928 89.1422367,42.3292673 C89.0581418,42.342282 88.9745475,42.3487894 88.8914537,42.3487894 C88.5460639,42.3487894 88.2106855,42.2391657 87.9273657,42.0309307 L83.1389622,38.5144624 C82.7144832,38.2026105 82.4717092,37.7220683 82.4717092,37.1959746 C82.4717092,36.6698809 82.7149837,36.1898392 83.1389622,35.8789884 M105.4151,105.231751 C105.448137,105.182195 105.582789,104.983971 105.635849,104.90288 C118.49486,90.7509098 125.925746,74.2813243 123.839892,54.4769757 C122.775691,44.3690692 119.184639,34.9874824 113.731985,26.9569201 L113.731985,0 L96.0375178,9.69243763 C87.5429319,4.2222647 77.643761,0.798400972 67.0848456,0.127143478 C53.4174223,-0.741336577 40.641505,2.89076214 30.0885964,9.67892238 L12.4186564,0 L12.4186564,26.9569201 L12.4201581,26.9569201 C5.8402328,36.7039193 1.9983974,48.4506752 1.9983974,61.095945 C1.9983974,61.095945 1.887272,63.3274632 2.28522107,66.9730772 C4.2684591,87.7425149 16.6439245,105.476527 34.1576882,114.913176 C51.0317301,124.709731 70.2323975,126.917222 109.390086,123.483347 C98.4317196,117.297867 104.171697,107.170939 105.4151,105.231751" id="Fill-1"></path>
                </g>
            </g>
        </g>
    </g>
</svg>