<?xml version="1.0" encoding="UTF-8"?>
<svg width="20px" height="20px" viewBox="0 0 20 20" version="1.1" xmlns="http://www.w3.org/2000/svg" xmlns:xlink="http://www.w3.org/1999/xlink">
    <!-- Generator: sketchtool 51 (57462) - http://www.bohemiancoding.com/sketch -->
    <title>360CBF40-A58E-4451-B21F-7C0470C1BCD2</title>
    <desc>Created with sketchtool.</desc>
    <defs>
        <polygon id="path-1" points="0.6695 0.3252 8.086 0.3252 8.086 4.8872 0.6695 4.8872"></polygon>
        <polygon id="path-3" points="0.6695 0.438 8.086 0.438 8.086 5 0.6695 5"></polygon>
        <polygon id="path-5" points="0.2972 0.1626 7.086 0.1626 7.086 1.1626 0.2972 1.1626"></polygon>
    </defs>
    <g id="Symbols" stroke="none" stroke-width="1" fill="none" fill-rule="evenodd">
        <g id="icon_resource">
            <g id="Group-16" transform="translate(2.000000, 2.000000)">
                <g id="Group-3" transform="translate(7.000000, 0.674800)">
                    <mask id="mask-2" fill="white">
                        <use xlink:href="#path-1"></use>
                    </mask>
                    <g id="Clip-2"></g>
                    <path d="M2.9505,1.3252 C3.6565,1.3252 4.2315,1.9002 4.2315,2.6062 C4.2315,3.3122 3.6565,3.8872 2.9505,3.8872 C2.2445,3.8872 1.6695,3.3122 1.6695,2.6062 C1.6695,1.9002 2.2445,1.3252 2.9505,1.3252 M2.9505,4.8872 C4.0405,4.8872 4.9515,4.1182 5.1765,3.0952 C5.1955,3.0972 5.2125,3.1062 5.2315,3.1062 L7.5865,3.1062 C7.8625,3.1062 8.0865,2.8822 8.0865,2.6062 C8.0865,2.3302 7.8625,2.1062 7.5865,2.1062 L5.2315,2.1062 C5.2125,2.1062 5.1955,2.1152 5.1765,2.1172 C4.9515,1.0942 4.0405,0.3252 2.9505,0.3252 C1.6925,0.3252 0.6695,1.3482 0.6695,2.6062 C0.6695,3.8642 1.6925,4.8872 2.9505,4.8872" id="Fill-1" fill="#FFFFFF" mask="url(#mask-2)"></path>
                </g>
                <path d="M0.5003,3.7808 L6.2893,3.7808 C6.5653,3.7808 6.7893,3.5568 6.7893,3.2808 C6.7893,3.0048 6.5653,2.7808 6.2893,2.7808 L0.5003,2.7808 C0.2243,2.7808 0.0003,3.0048 0.0003,3.2808 C0.0003,3.5568 0.2243,3.7808 0.5003,3.7808" id="Fill-4" fill="#FFFFFF"></path>
                <g id="Group-8" transform="translate(7.000000, 10.674800)">
                    <mask id="mask-4" fill="white">
                        <use xlink:href="#path-3"></use>
                    </mask>
                    <g id="Clip-7"></g>
                    <path d="M2.9505,4 C2.2445,4 1.6695,3.425 1.6695,2.719 C1.6695,2.013 2.2445,1.438 2.9505,1.438 C3.6565,1.438 4.2315,2.013 4.2315,2.719 C4.2315,3.425 3.6565,4 2.9505,4 M7.5865,2.219 L5.2315,2.219 C5.2125,2.219 5.1955,2.228 5.1765,2.23 C4.9515,1.207 4.0405,0.438 2.9505,0.438 C1.6925,0.438 0.6695,1.461 0.6695,2.719 C0.6695,3.977 1.6925,5 2.9505,5 C4.0405,5 4.9515,4.23 5.1765,3.208 C5.1955,3.21 5.2125,3.219 5.2315,3.219 L7.5865,3.219 C7.8625,3.219 8.0865,2.995 8.0865,2.719 C8.0865,2.443 7.8625,2.219 7.5865,2.219" id="Fill-6" fill="#FFFFFF" mask="url(#mask-4)"></path>
                </g>
                <path d="M6.2894,12.8936 L0.5004,12.8936 C0.2244,12.8936 0.0004,13.1176 0.0004,13.3936 C0.0004,13.6696 0.2244,13.8936 0.5004,13.8936 L6.2894,13.8936 C6.5654,13.8936 6.7894,13.6696 6.7894,13.3936 C6.7894,13.1176 6.5654,12.8936 6.2894,12.8936" id="Fill-9" fill="#FFFFFF"></path>
                <path d="M5.1351,9.6182 C4.4291,9.6182 3.8551,9.0432 3.8551,8.3372 C3.8551,7.6312 4.4291,7.0562 5.1351,7.0562 C5.8411,7.0562 6.4161,7.6312 6.4161,8.3372 C6.4161,9.0432 5.8411,9.6182 5.1351,9.6182 M5.1351,6.0562 C4.0451,6.0562 3.1351,6.8252 2.9101,7.8482 C2.8911,7.8462 2.8741,7.8372 2.8551,7.8372 L0.5001,7.8372 C0.2241,7.8372 0.0001,8.0612 0.0001,8.3372 C0.0001,8.6132 0.2241,8.8372 0.5001,8.8372 L2.8551,8.8372 C2.8741,8.8372 2.8911,8.8282 2.9101,8.8262 C3.1351,9.8492 4.0451,10.6182 5.1351,10.6182 C6.3931,10.6182 7.4161,9.5952 7.4161,8.3372 C7.4161,7.0792 6.3931,6.0562 5.1351,6.0562" id="Fill-11" fill="#FFFFFF"></path>
                <g id="Group-15" transform="translate(8.000000, 7.674800)">
                    <mask id="mask-6" fill="white">
                        <use xlink:href="#path-5"></use>
                    </mask>
                    <g id="Clip-14"></g>
                    <path d="M6.5862,0.1626 L0.7972,0.1626 C0.5212,0.1626 0.2972,0.3866 0.2972,0.6626 C0.2972,0.9386 0.5212,1.1626 0.7972,1.1626 L6.5862,1.1626 C6.8622,1.1626 7.0862,0.9386 7.0862,0.6626 C7.0862,0.3866 6.8622,0.1626 6.5862,0.1626" id="Fill-13" fill="#FFFFFF" mask="url(#mask-6)"></path>
                </g>
            </g>
        </g>
    </g>
</svg>