<svg xmlns="http://www.w3.org/2000/svg" width="20" height="20" viewBox="0 0 20 20">
    <path fill="#999" fill-rule="nonzero" d="M13.117 10.13a3.257 3.257 0 0 1-3.255-3.252 3.257 3.257 0 0 1 3.255-3.252 3.257 3.257 0 0 1 3.255 3.252 3.257 3.257 0 0 1-3.255 3.252m-1.103-8.01A4.85 4.85 0 0 0 8.36 5.767c-.33 1.479.02 2.87.787 3.944L2.24 16.612a.813.813 0 0 0 1.15 1.15l.586-.585.552.552a.813.813 0 0 0 1.15-1.15l-.552-.552 1.61-1.609.57.569a.813.813 0 0 0 1.15-1.15l-.568-.568 2.413-2.41a4.887 4.887 0 0 0 3.935.772c1.798-.401 3.249-1.851 3.644-3.649a4.892 4.892 0 0 0-5.865-5.862"/>
</svg>
