<svg xmlns="http://www.w3.org/2000/svg" width="20" height="20" viewBox="0 0 20 20">
    <g fill="#FFF" fill-rule="evenodd">
        <path d="M2.953 2.5c-.801 0-1.453.652-1.453 1.453v3.509c0 .801.652 1.453 1.453 1.453h14.146c.801 0 1.452-.652 1.452-1.453V3.953c0-.801-.651-1.453-1.452-1.453H2.953zm14.146 7.415H2.953A2.455 2.455 0 0 1 .5 7.462V3.953A2.455 2.455 0 0 1 2.953 1.5h14.146a2.456 2.456 0 0 1 2.452 2.453v3.509c0 1.352-1.1 2.453-2.452 2.453z"/>
        <path d="M4.772 4.955a.753.753 0 1 1 0 1.505.753.753 0 0 1 0-1.505M2.953 11.705c-.801 0-1.453.652-1.453 1.453v3.51c0 .8.652 1.453 1.453 1.453h14.146c.801 0 1.452-.652 1.452-1.453v-3.51c0-.801-.651-1.453-1.452-1.453H2.953zm14.146 7.416H2.953A2.456 2.456 0 0 1 .5 16.668v-3.51a2.456 2.456 0 0 1 2.453-2.453h14.146a2.456 2.456 0 0 1 2.452 2.453v3.51c0 1.35-1.1 2.453-2.452 2.453z"/>
        <path d="M4.772 14.16a.753.753 0 1 1 0 1.506.753.753 0 0 1 0-1.505"/>
    </g>
</svg>
