<svg xmlns="http://www.w3.org/2000/svg" width="20" height="20" viewBox="0 0 20 20">
    <g fill="#FFF" fill-rule="evenodd">
        <path d="M15.293 17.109c0 .801-.652 1.453-1.453 1.453H5.953A1.455 1.455 0 0 1 4.5 17.109V2.953c0-.801.652-1.453 1.453-1.453h7.887c.801 0 1.453.652 1.453 1.453v14.156zM13.84.5H5.953A2.457 2.457 0 0 0 3.5 2.953v14.156a2.457 2.457 0 0 0 2.453 2.453h7.887c1.351 0 2.453-1.1 2.453-2.453V2.953A2.457 2.457 0 0 0 13.84.5z"/>
        <path d="M11.866 6.146l-2.299 2.3-1.514-1.514a.5.5 0 0 0-.707.707L9.567 9.86l3.006-3.007a.5.5 0 0 0-.707-.707"/>
    </g>
</svg>
