<?xml version="1.0" encoding="UTF-8"?>
<svg width="20px" height="20px" viewBox="0 0 20 20" version="1.1" xmlns="http://www.w3.org/2000/svg" xmlns:xlink="http://www.w3.org/1999/xlink">
    <!-- Generator: sketchtool 51 (57462) - http://www.bohemiancoding.com/sketch -->
    <title>C66486B9-F0A5-4988-9AC1-A67A3919D0B0</title>
    <desc>Created with sketchtool.</desc>
    <defs></defs>
    <g id="Symbols" stroke="none" stroke-width="1" fill="none" fill-rule="evenodd">
        <g id="icon_application" fill="#FFFFFF">
            <g id="Group" transform="translate(0.400000, 1.000000)">
                <path d="M17.35,15.409 C17.35,16.271 16.574,17 15.654,17 L12.503,17 C11.605,17 10.901,16.301 10.901,15.409 L10.901,12.409 C10.901,11.507 11.605,10.8 12.503,10.8 L15.654,10.8 C16.574,10.8 17.35,11.537 17.35,12.409 L17.35,15.409 Z M15.654,10 L12.503,10 C11.1,10 10,11.058 10,12.409 L10,15.409 C10,16.75 11.1,17.8 12.503,17.8 L15.654,17.8 C17.086,17.8 18.251,16.727 18.251,15.409 L18.251,12.409 C18.251,11.103 17.062,10 15.654,10 Z" id="Fill-1"></path>
                <path d="M7.35,15.409 C7.35,16.271 6.574,17 5.654,17 L2.503,17 C1.605,17 0.901,16.301 0.901,15.409 L0.901,12.409 C0.901,11.507 1.605,10.8 2.503,10.8 L5.654,10.8 C6.574,10.8 7.35,11.537 7.35,12.409 L7.35,15.409 Z M5.654,10 L2.503,10 C1.1,10 0,11.058 0,12.409 L0,15.409 C0,16.75 1.1,17.8 2.503,17.8 L5.654,17.8 C7.086,17.8 8.251,16.727 8.251,15.409 L8.251,12.409 C8.251,11.103 7.062,10 5.654,10 Z" id="Fill-4"></path>
                <path d="M17.35,5.409 C17.35,6.271 16.574,7 15.654,7 L12.503,7 C11.605,7 10.901,6.301 10.901,5.409 L10.901,2.409 C10.901,1.507 11.605,0.8 12.503,0.8 L15.654,0.8 C16.574,0.8 17.35,1.537 17.35,2.409 L17.35,5.409 Z M15.654,0 L12.503,0 C11.1,0 10,1.058 10,2.409 L10,5.409 C10,6.75 11.1,7.8 12.503,7.8 L15.654,7.8 C17.086,7.8 18.251,6.727 18.251,5.409 L18.251,2.409 C18.251,1.103 17.062,0 15.654,0 Z" id="Fill-7"></path>
                <path d="M7.35,5.409 C7.35,6.271 6.574,7 5.654,7 L2.503,7 C1.605,7 0.901,6.301 0.901,5.409 L0.901,2.409 C0.901,1.507 1.605,0.8 2.503,0.8 L5.654,0.8 C6.574,0.8 7.35,1.537 7.35,2.409 L7.35,5.409 Z M5.654,0 L2.503,0 C1.1,0 0,1.058 0,2.409 L0,5.409 C0,6.75 1.1,7.8 2.503,7.8 L5.654,7.8 C7.086,7.8 8.251,6.727 8.251,5.409 L8.251,2.409 C8.251,1.103 7.062,0 5.654,0 Z" id="Fill-9"></path>
            </g>
        </g>
    </g>
</svg>