<svg width="9px" height="14px" viewBox="0 0 9 14" version="1.1" xmlns="http://www.w3.org/2000/svg" xmlns:xlink="http://www.w3.org/1999/xlink">
	<defs>
		<style>
			g { display: none }
			g:target g,
			g:target { display: inline }
		</style>
	</defs>
	<g id="left">
		<g fill="#999999" fill-rule="nonzero">
			<path d="M0.918,6.91 C0.909469888,6.62878572 1.01770064,6.35657995 1.217,6.158 L6.993,0.382 C7.39174959,-0.0167495894 8.03825041,-0.0167495894 8.437,0.382 C8.83574959,0.780749589 8.83574959,1.42725041 8.437,1.826 L3.353,6.909 L8.437,11.993 C8.69494576,12.2509458 8.79568505,12.6269099 8.70127035,12.9792703 C8.60685565,13.3316308 8.33163081,13.6068557 7.97927035,13.7012704 C7.62690989,13.7956851 7.25094575,13.6949458 6.993,13.437 L1.217,7.66 C1.01733413,7.46158963 0.908732837,7.18936238 0.917,6.908 L0.918,6.91 Z"></path>
		</g>
	</g>
	<g id="right">
		<g fill="#999999" fill-rule="nonzero">
			<path d="M0.918,6.91 C0.909469888,6.62878572 1.01770064,6.35657995 1.217,6.158 L6.993,0.382 C7.39174959,-0.0167495894 8.03825041,-0.0167495894 8.437,0.382 C8.83574959,0.780749589 8.83574959,1.42725041 8.437,1.826 L3.353,6.909 L8.437,11.993 C8.69494576,12.2509458 8.79568505,12.6269099 8.70127035,12.9792703 C8.60685565,13.3316308 8.33163081,13.6068557 7.97927035,13.7012704 C7.62690989,13.7956851 7.25094575,13.6949458 6.993,13.437 L1.217,7.66 C1.01733413,7.46158963 0.908732837,7.18936238 0.917,6.908 L0.918,6.91 Z" transform="translate(4.826323, 6.909512) scale(-1, 1) translate(-4.826323, -6.909512) "></path>
		</g>
	</g>
</svg>
