<?xml version="1.0" encoding="UTF-8"?>
<svg width="20px" height="20px" viewBox="0 0 20 20" version="1.1" xmlns="http://www.w3.org/2000/svg" xmlns:xlink="http://www.w3.org/1999/xlink">
    <!-- Generator: sketchtool 50.2 (55047) - http://www.bohemiancoding.com/sketch -->
    <title>206DECC2-2DB5-4226-BE4C-FEB22D317967</title>
    <desc>Created with sketchtool.</desc>
    <defs></defs>
    <g id="Symbols" stroke="none" stroke-width="1" fill="none" fill-rule="evenodd" stroke-linecap="round" stroke-linejoin="round">
        <g id="icon_setting" stroke="#C3C3C3" stroke-width="1.6">
            <g id="settings" transform="translate(2.000000, 2.000000)">
                <circle id="Oval" cx="8" cy="8" r="2.18181818"></circle>
                <path d="M13.3818182,10.1818182 C13.183748,10.630611 13.2787885,11.1547733 13.6218182,11.5054545 L13.6654545,11.5490909 C13.9385848,11.8219175 14.0920533,12.192132 14.0920533,12.5781818 C14.0920533,12.9642316 13.9385848,13.3344462 13.6654545,13.6072727 C13.392628,13.880403 13.0224135,14.0338715 12.6363636,14.0338715 C12.2503138,14.0338715 11.8800993,13.880403 11.6072727,13.6072727 L11.5636364,13.5636364 C11.2129551,13.2206066 10.6887928,13.1255662 10.24,13.3236364 C9.80038501,13.5120497 9.51463484,13.9435324 9.51272727,14.4218182 L9.51272727,14.5454545 C9.51272727,15.3487778 8.86150509,16 8.05818182,16 C7.25485855,16 6.60363636,15.3487778 6.60363636,14.5454545 L6.60363636,14.48 C6.59211389,13.987397 6.28063401,13.5519019 5.81818182,13.3818182 C5.36938904,13.183748 4.84522672,13.2787885 4.49454545,13.6218182 L4.45090909,13.6654545 C4.17808254,13.9385848 3.807868,14.0920533 3.42181818,14.0920533 C3.03576837,14.0920533 2.66555383,13.9385848 2.39272727,13.6654545 C2.11959703,13.392628 1.9661285,13.0224135 1.9661285,12.6363636 C1.9661285,12.2503138 2.11959703,11.8800993 2.39272727,11.6072727 L2.43636364,11.5636364 C2.77939337,11.2129551 2.87443379,10.6887928 2.67636364,10.24 C2.48795034,9.80038501 2.05646758,9.51463484 1.57818182,9.51272727 L1.45454545,9.51272727 C0.651222182,9.51272727 1.61486985e-16,8.86150509 0,8.05818182 C-8.07434927e-17,7.25485855 0.651222182,6.60363636 1.45454545,6.60363636 L1.52,6.60363636 C2.01260304,6.59211389 2.44809805,6.28063401 2.61818182,5.81818182 C2.81625197,5.36938904 2.72121155,4.84522672 2.37818182,4.49454545 L2.33454545,4.45090909 C2.06141521,4.17808254 1.90794668,3.807868 1.90794668,3.42181818 C1.90794668,3.03576837 2.06141521,2.66555383 2.33454545,2.39272727 C2.60737201,2.11959703 2.97758655,1.9661285 3.36363636,1.9661285 C3.74968618,1.9661285 4.11990072,2.11959703 4.39272727,2.39272727 L4.43636364,2.43636364 C4.7870449,2.77939337 5.31120722,2.87443379 5.76,2.67636364 L5.81818182,2.67636364 C6.25779681,2.48795034 6.54354698,2.05646758 6.54545455,1.57818182 L6.54545455,1.45454545 C6.54545455,0.651222182 7.19667673,1.61486985e-16 8,0 C8.80332327,0 9.45454545,0.651222182 9.45454545,1.45454545 L9.45454545,1.52 C9.45645302,1.99828576 9.74220319,2.42976852 10.1818182,2.61818182 C10.630611,2.81625197 11.1547733,2.72121155 11.5054545,2.37818182 L11.5490909,2.33454545 C11.8219175,2.06141521 12.192132,1.90794668 12.5781818,1.90794668 C12.9642316,1.90794668 13.3344462,2.06141521 13.6072727,2.33454545 C13.880403,2.60737201 14.0338715,2.97758655 14.0338715,3.36363636 C14.0338715,3.74968618 13.880403,4.11990072 13.6072727,4.39272727 L13.5636364,4.43636364 C13.2206066,4.7870449 13.1255662,5.31120722 13.3236364,5.76 L13.3236364,5.81818182 C13.5120497,6.25779681 13.9435324,6.54354698 14.4218182,6.54545455 L14.5454545,6.54545455 C15.3487778,6.54545455 16,7.19667673 16,8 C16,8.80332327 15.3487778,9.45454545 14.5454545,9.45454545 L14.48,9.45454545 C14.0017142,9.45645302 13.5702315,9.74220319 13.3818182,10.1818182 Z" id="Shape"></path>
            </g>
        </g>
    </g>
</svg>