<svg xmlns="http://www.w3.org/2000/svg" xmlns:xlink="http://www.w3.org/1999/xlink" width="20" height="20" viewBox="0 0 20 20">
    <defs>
        <path id="a" d="M0 0h19.158v18.249H0z"/>
    </defs>
    <g fill="none" fill-rule="evenodd" transform="translate(0 .5)">
        <mask id="b" fill="#fff">
            <use xlink:href="#a"/>
        </mask>
        <path fill="#FFF" d="M18.158 12.28c0 .8-.65 1.452-1.452 1.452H2.452A1.453 1.453 0 0 1 1 12.28V2.453C1 1.653 1.651 1 2.452 1h14.254c.801 0 1.452.653 1.452 1.453v9.827zM16.706 0H2.452A2.455 2.455 0 0 0 0 2.453v9.827a2.454 2.454 0 0 0 2.452 2.452H9.08v2.389H6.627a.566.566 0 0 0-.565.564c0 .31.254.564.565.564h5.904a.566.566 0 0 0 .565-.564.566.566 0 0 0-.565-.564H10.08v-2.39h6.627a2.454 2.454 0 0 0 2.452-2.451V2.453C19.158 1.1 18.058 0 16.706 0z" mask="url(#b)"/>
    </g>
</svg>
