<?xml version="1.0" encoding="UTF-8"?>
<svg width="16px" height="16px" viewBox="0 0 16 16" version="1.1" xmlns="http://www.w3.org/2000/svg" xmlns:xlink="http://www.w3.org/1999/xlink">
    <!-- Generator: sketchtool 50.2 (55047) - http://www.bohemiancoding.com/sketch -->
    <title>E559264E-AAD4-4973-B194-26D76B031EF1</title>
    <desc>Created with sketchtool.</desc>
    <defs></defs>
    <g id="Page-1" stroke="none" stroke-width="1" fill="none" fill-rule="evenodd">
        <g id="1920.전송하기" transform="translate(-1633.000000, -212.000000)" fill="#737A8D" fill-rule="nonzero">
            <g id="Group-18" transform="translate(1633.000000, 212.000000)">
                <g id="icon_info-mark">
                    <path d="M8,16 C3.581722,16 3.55271368e-16,12.418278 0,8 C-3.55271368e-16,3.581722 3.581722,7.10542736e-16 8,0 C12.418278,3.55271368e-16 16,3.581722 16,8 C16,12.418278 12.418278,16 8,16 Z M8,14.4 C11.5346224,14.4 14.4,11.5346224 14.4,8 C14.4,4.4653776 11.5346224,1.6 8,1.6 C4.4653776,1.6 1.6,4.4653776 1.6,8 C1.6,11.5346224 4.4653776,14.4 8,14.4 Z M8,7.2 C8.4418278,7.2 8.8,7.5581722 8.8,8 L8.8,11.2 C8.8,11.6418278 8.4418278,12 8,12 C7.5581722,12 7.2,11.6418278 7.2,11.2 L7.2,8 C7.2,7.5581722 7.5581722,7.2 8,7.2 Z M8,4 C8.4418278,4 8.8,4.3581722 8.8,4.8 C8.8,5.2418278 8.4418278,5.6 8,5.6 C7.5581722,5.6 7.2,5.2418278 7.2,4.8 C7.2,4.3581722 7.5581722,4 8,4 Z" id="Shape"></path>
                </g>
            </g>
        </g>
    </g>
</svg>
