<svg xmlns="http://www.w3.org/2000/svg" xmlns:xlink="http://www.w3.org/1999/xlink" width="24" height="24" viewBox="0 0 24 24">
    <defs>
        <path id="a" d="M0 .59h18.098v6.604H0z"/>
    </defs>
    <g fill="none" fill-rule="evenodd">
        <g transform="translate(2 3.47)">
            <mask id="b" fill="#fff">
                <use xlink:href="#a"/>
            </mask>
            <path fill="#FFF" d="M14.796 1.648a2.246 2.246 0 0 1 2.244 2.244 2.245 2.245 0 1 1-2.244-2.244zM1.744 5.927a.53.53 0 0 0 .749-.749l-.757-.757h9.81a3.3 3.3 0 0 0 3.25 2.773A3.307 3.307 0 0 0 18.1 3.892 3.307 3.307 0 0 0 14.796.589a3.3 3.3 0 0 0-3.25 2.773H1.819l.757-.758a.53.53 0 0 0-.748-.749L.176 3.506a.603.603 0 0 0 0 .853l1.568 1.568z" mask="url(#b)"/>
        </g>
        <path fill="#FFF" d="M5.303 19.352a2.245 2.245 0 0 1-2.244-2.244 2.245 2.245 0 0 1 2.244-2.243 2.245 2.245 0 0 1 2.243 2.243 2.245 2.245 0 0 1-2.243 2.244zm12.97-4.279a.53.53 0 0 0-.75.749l.757.757H8.552a3.3 3.3 0 0 0-3.25-2.773A3.306 3.306 0 0 0 2 17.108a3.306 3.306 0 0 0 3.303 3.303 3.302 3.302 0 0 0 3.25-2.773h9.81l-.757.758a.53.53 0 0 0 .749.749l1.567-1.57a.602.602 0 0 0 0-.851l-1.65-1.65z"/>
    </g>
</svg>
