<?xml version="1.0" encoding="UTF-8"?>
<svg width="22px" height="22px" viewBox="0 0 22 22" version="1.1" xmlns="http://www.w3.org/2000/svg" xmlns:xlink="http://www.w3.org/1999/xlink">
    <!-- Generator: Sketch 51.1 (57501) - http://www.bohemiancoding.com/sketch -->
    <title>icon-vote-eoshub</title>
    <desc>Created with Sketch.</desc>
    <defs></defs>
    <g id="Page-1" stroke="none" stroke-width="1" fill="none" fill-rule="evenodd">
        <g id="icon-vote-eoshub" fill="#FFFFFF">
            <path d="M10.524,10.347 L13.832,7.04 C14.0468387,6.82516123 14.0468387,6.47683878 13.832,6.26200002 C13.6171612,6.04716126 13.2688388,6.04716125 13.054,6.262 L10.524,8.792 L8.859,7.127 C8.64274363,6.92249489 8.30303981,6.92712844 8.09244174,7.13745582 C7.88184366,7.3477832 7.87677321,7.68748078 8.081,7.904 L10.524,10.347 Z" id="Shape"></path>
            <path d="M20.006,20.077 L1.651,20.077 L1.651,13.202 L6.751,13.202 L6.751,15.662 L14.904,15.662 L14.904,13.202 L20.006,13.202 L20.006,20.077 Z M4.813,2.797 C4.813,1.917 5.531,1.199 6.413,1.199 L15.086,1.199 C15.967,1.199 16.684,1.918 16.684,2.798 L16.684,12.102 L13.804,12.102 L13.804,14.562 L7.851,14.562 L7.851,12.102 L4.813,12.102 L4.813,2.798 L4.813,2.797 Z M17.784,12.102 L17.784,2.798 C17.7828978,1.30823061 16.5757689,0.100654279 15.086,0.099 L6.412,0.099 C4.92206883,0.100653337 3.71465334,1.30806883 3.713,2.798 L3.713,12.102 L0.551,12.102 L0.551,21.177 L21.106,21.177 L21.106,12.102 L17.784,12.102 Z" id="Shape"></path>
        </g>
    </g>
</svg>