<?xml version="1.0" encoding="UTF-8"?>
<svg width="300px" height="65px" viewBox="0 0 300 65" version="1.1" xmlns="http://www.w3.org/2000/svg" xmlns:xlink="http://www.w3.org/1999/xlink">
    <!-- Generator: Sketch 51.1 (57501) - http://www.bohemiancoding.com/sketch -->
    <title>logo-eoshub</title>
    <desc>Created with Sketch.</desc>
	<style>
		g { display: none }
		g:target g,
		g:target { display: inline }
	</style>
	<g id="black" transform="translate(-1.000000, 0.000000)" fill="#000000" fill-rule="nonzero">
		<path d="M40.7,23.77 C36.4,19.16 30.7,16.83 23.9,16.83 C17.1,16.83 11.39,19.16 7.09,23.83 C3.05,28.18 1,33.84 1,40.6 C0.817845051,46.8340017 3.10757624,52.8872314 7.37,57.44 C11.73,62.05 17.43,64.38 24.37,64.38 C29.8,64.38 34.37,63.07 37.81,60.47 C41.2806685,57.8907731 43.9306255,54.3621278 45.44,50.31 L36.44,48.73 L36.11,49.35 C33.73,53.88 29.91,56.09 24.43,56.09 C20.7708009,56.2382366 17.2072254,54.9000924 14.55,52.38 C12.298776,50.2454255 10.800499,47.438349 10.28,44.38 L46.8,40.6 C46.8,33.85 44.75,28.18 40.7,23.77 Z M10.41,35.93 C10.9999192,33.1187645 12.4337938,30.5545362 14.52,28.58 C17.0754499,26.246969 20.4416483,25.0052797 23.9,25.12 C27.3533771,25.0062604 30.7149357,26.2439741 33.27,28.57 C35.3606222,30.546663 36.7980122,33.1144276 37.39,35.93 L10.41,35.93 Z"></path>
		<path d="M136.37,38.78 C134.023043,37.8121078 131.583864,37.0850449 129.09,36.61 C126.6,36.12 124.25,35.61 122.09,35.01 C120.305279,34.5650917 118.596606,33.8573574 117.02,32.91 C115.966133,32.2893132 115.348347,31.1309639 115.42,29.91 C115.42,28.64 115.42,24.77 124.42,24.77 C133.42,24.77 134.07,29.14 134.26,30.58 L143.38,31.58 L143.23,30.28 C142.877186,26.6636749 141.117386,23.3308287 138.33,21 C135.03,18.26 130.51,16.88 124.88,16.88 C118.98,16.88 114.42,18.06 111.33,20.4 C108.154771,22.7942576 106.360022,26.5968834 106.53,30.57 C106.409103,33.1542385 107.294429,35.6847665 109,37.63 C110.626853,39.3312969 112.606565,40.6556563 114.8,41.51 C117.150025,42.447344 119.584493,43.1572575 122.07,43.63 C124.59,44.12 126.93,44.63 129.07,45.27 C130.859836,45.7391613 132.56422,46.488415 134.12,47.49 C135.209725,48.1726502 135.838932,49.3965353 135.76,50.68 C135.76,52.89 134.65,54.36 132.3,55.29 C131.168188,55.72088 129.990376,56.0195274 128.79,56.18 C126.080676,56.6362872 123.305032,56.5067117 120.65,55.8 C116.94,54.54 114.96,52.2 114.65,48.64 L105.42,47.64 L105.49,48.87 C105.635446,53.1319938 107.642055,57.1159709 110.98,59.77 C114.63,62.86 119.57,64.43 125.67,64.43 C131.38,64.43 135.99,63.22 139.4,60.85 C142.896698,58.4238303 144.90203,54.3716261 144.71,50.12 C144.84659,47.4734147 143.970609,44.8740768 142.26,42.85 C140.62544,41.0702748 138.612781,39.6795235 136.37,38.78 Z"></path>
		<path d="M181.61,18.13 C179.045699,17.2094308 176.333846,16.7687548 173.61,16.83 C170.630165,16.7898999 167.702397,17.6130091 165.18,19.2 C163.735837,20.1240542 162.394849,21.2001972 161.18,22.41 L161.18,4.88 L152.33,0 L152.33,63.68 L161.23,63.68 L161.23,37.27 C161.100836,33.9768346 162.372539,30.7830417 164.73,28.48 C167.017162,26.2508917 170.107269,25.0393676 173.3,25.12 C176.306721,24.9981898 179.220729,26.1747207 181.3,28.35 C183.38,30.54 184.39,33.43 184.39,37.19 L184.39,63.68 L193.3,63.68 L193.3,37 C193.3,30.86 191.35,25.84 187.54,22.08 C185.872128,20.3501271 183.848975,19.002496 181.61,18.13 Z"></path>
		<path d="M234.77,43.93 C234.904636,47.2250829 233.63643,50.4228514 231.28,52.73 C228.992838,54.9591083 225.902731,56.1706324 222.71,56.09 C219.703053,56.2131187 216.788525,55.0363785 214.71,52.86 C212.550077,50.4296554 211.432965,47.2471433 211.6,44 L211.6,17.53 L202.7,17.53 L202.7,44.2 C202.7,50.34 204.64,55.36 208.46,59.11 C210.118351,60.8679432 212.147497,62.2343717 214.4,63.11 C216.962145,64.0398021 219.675112,64.4840505 222.4,64.42 C225.368972,64.4435175 228.280645,63.6026762 230.78,62 C232.228327,61.0856023 233.569979,60.0122806 234.78,58.8 L243.69,63.68 L243.69,17.53 L234.78,17.53 L234.77,43.93 Z"></path>
		<path d="M75.91,64 C66.4248589,64.0040328 57.8721944,58.2912884 54.2433317,49.5277689 C50.614469,40.7642493 52.624769,30.6775149 59.3360725,23.9748046 C66.047376,17.2720944 76.1366778,15.2747195 84.8955407,18.9148072 C93.6544036,22.554895 99.3561854,31.1148718 99.34,40.6 C99.3069632,53.5214621 88.8314938,63.9835186 75.91,64 Z M75.91,25.56 C67.6257288,25.56 60.91,32.2757288 60.91,40.56 C60.91,48.8442712 67.6257288,55.56 75.91,55.56 C84.1942712,55.56 90.91,48.8442712 90.91,40.56 C90.8879502,32.291354 84.1786754,25.5999706 75.91,25.6 L75.91,25.56 Z"></path>
		<path d="M277.57,17.51 C272.275582,17.4990119 267.135835,19.2945721 263,22.6 L263,4.88 L254.14,0 L254.14,63.68 L262.65,59 C270.61506,65.5741149 281.94525,66.157651 290.543545,60.4365948 C299.14184,54.7155385 302.980127,44.0393374 299.99294,34.1530907 C297.005752,24.266844 287.897689,17.5024588 277.57,17.5 L277.57,17.51 Z M277.57,55.95 C269.285729,55.95 262.57,49.2342712 262.57,40.95 C262.57,32.6657288 269.285729,25.95 277.57,25.95 C285.854271,25.95 292.57,32.6657288 292.57,40.95 C292.58329,44.9369034 291.008806,48.7650698 288.194319,51.5889388 C285.379831,54.4128078 281.556926,56.0000221 277.57,56 L277.57,55.95 Z"></path>
	</g>
	<g id="white">
		<g transform="translate(-1.000000, 0.000000)" fill="#FFFFFF" fill-rule="nonzero">
			<path d="M40.7,23.77 C36.4,19.16 30.7,16.83 23.9,16.83 C17.1,16.83 11.39,19.16 7.09,23.83 C3.05,28.18 1,33.84 1,40.6 C0.817845051,46.8340017 3.10757624,52.8872314 7.37,57.44 C11.73,62.05 17.43,64.38 24.37,64.38 C29.8,64.38 34.37,63.07 37.81,60.47 C41.2806685,57.8907731 43.9306255,54.3621278 45.44,50.31 L36.44,48.73 L36.11,49.35 C33.73,53.88 29.91,56.09 24.43,56.09 C20.7708009,56.2382366 17.2072254,54.9000924 14.55,52.38 C12.298776,50.2454255 10.800499,47.438349 10.28,44.38 L46.8,40.6 C46.8,33.85 44.75,28.18 40.7,23.77 Z M10.41,35.93 C10.9999192,33.1187645 12.4337938,30.5545362 14.52,28.58 C17.0754499,26.246969 20.4416483,25.0052797 23.9,25.12 C27.3533771,25.0062604 30.7149357,26.2439741 33.27,28.57 C35.3606222,30.546663 36.7980122,33.1144276 37.39,35.93 L10.41,35.93 Z"></path>
			<path d="M136.37,38.78 C134.023043,37.8121078 131.583864,37.0850449 129.09,36.61 C126.6,36.12 124.25,35.61 122.09,35.01 C120.305279,34.5650917 118.596606,33.8573574 117.02,32.91 C115.966133,32.2893132 115.348347,31.1309639 115.42,29.91 C115.42,28.64 115.42,24.77 124.42,24.77 C133.42,24.77 134.07,29.14 134.26,30.58 L143.38,31.58 L143.23,30.28 C142.877186,26.6636749 141.117386,23.3308287 138.33,21 C135.03,18.26 130.51,16.88 124.88,16.88 C118.98,16.88 114.42,18.06 111.33,20.4 C108.154771,22.7942576 106.360022,26.5968834 106.53,30.57 C106.409103,33.1542385 107.294429,35.6847665 109,37.63 C110.626853,39.3312969 112.606565,40.6556563 114.8,41.51 C117.150025,42.447344 119.584493,43.1572575 122.07,43.63 C124.59,44.12 126.93,44.63 129.07,45.27 C130.859836,45.7391613 132.56422,46.488415 134.12,47.49 C135.209725,48.1726502 135.838932,49.3965353 135.76,50.68 C135.76,52.89 134.65,54.36 132.3,55.29 C131.168188,55.72088 129.990376,56.0195274 128.79,56.18 C126.080676,56.6362872 123.305032,56.5067117 120.65,55.8 C116.94,54.54 114.96,52.2 114.65,48.64 L105.42,47.64 L105.49,48.87 C105.635446,53.1319938 107.642055,57.1159709 110.98,59.77 C114.63,62.86 119.57,64.43 125.67,64.43 C131.38,64.43 135.99,63.22 139.4,60.85 C142.896698,58.4238303 144.90203,54.3716261 144.71,50.12 C144.84659,47.4734147 143.970609,44.8740768 142.26,42.85 C140.62544,41.0702748 138.612781,39.6795235 136.37,38.78 Z"></path>
			<path d="M181.61,18.13 C179.045699,17.2094308 176.333846,16.7687548 173.61,16.83 C170.630165,16.7898999 167.702397,17.6130091 165.18,19.2 C163.735837,20.1240542 162.394849,21.2001972 161.18,22.41 L161.18,4.88 L152.33,0 L152.33,63.68 L161.23,63.68 L161.23,37.27 C161.100836,33.9768346 162.372539,30.7830417 164.73,28.48 C167.017162,26.2508917 170.107269,25.0393676 173.3,25.12 C176.306721,24.9981898 179.220729,26.1747207 181.3,28.35 C183.38,30.54 184.39,33.43 184.39,37.19 L184.39,63.68 L193.3,63.68 L193.3,37 C193.3,30.86 191.35,25.84 187.54,22.08 C185.872128,20.3501271 183.848975,19.002496 181.61,18.13 Z"></path>
			<path d="M234.77,43.93 C234.904636,47.2250829 233.63643,50.4228514 231.28,52.73 C228.992838,54.9591083 225.902731,56.1706324 222.71,56.09 C219.703053,56.2131187 216.788525,55.0363785 214.71,52.86 C212.550077,50.4296554 211.432965,47.2471433 211.6,44 L211.6,17.53 L202.7,17.53 L202.7,44.2 C202.7,50.34 204.64,55.36 208.46,59.11 C210.118351,60.8679432 212.147497,62.2343717 214.4,63.11 C216.962145,64.0398021 219.675112,64.4840505 222.4,64.42 C225.368972,64.4435175 228.280645,63.6026762 230.78,62 C232.228327,61.0856023 233.569979,60.0122806 234.78,58.8 L243.69,63.68 L243.69,17.53 L234.78,17.53 L234.77,43.93 Z"></path>
			<path d="M75.91,64 C66.4248589,64.0040328 57.8721944,58.2912884 54.2433317,49.5277689 C50.614469,40.7642493 52.624769,30.6775149 59.3360725,23.9748046 C66.047376,17.2720944 76.1366778,15.2747195 84.8955407,18.9148072 C93.6544036,22.554895 99.3561854,31.1148718 99.34,40.6 C99.3069632,53.5214621 88.8314938,63.9835186 75.91,64 Z M75.91,25.56 C67.6257288,25.56 60.91,32.2757288 60.91,40.56 C60.91,48.8442712 67.6257288,55.56 75.91,55.56 C84.1942712,55.56 90.91,48.8442712 90.91,40.56 C90.8879502,32.291354 84.1786754,25.5999706 75.91,25.6 L75.91,25.56 Z"></path>
			<path d="M277.57,17.51 C272.275582,17.4990119 267.135835,19.2945721 263,22.6 L263,4.88 L254.14,0 L254.14,63.68 L262.65,59 C270.61506,65.5741149 281.94525,66.157651 290.543545,60.4365948 C299.14184,54.7155385 302.980127,44.0393374 299.99294,34.1530907 C297.005752,24.266844 287.897689,17.5024588 277.57,17.5 L277.57,17.51 Z M277.57,55.95 C269.285729,55.95 262.57,49.2342712 262.57,40.95 C262.57,32.6657288 269.285729,25.95 277.57,25.95 C285.854271,25.95 292.57,32.6657288 292.57,40.95 C292.58329,44.9369034 291.008806,48.7650698 288.194319,51.5889388 C285.379831,54.4128078 281.556926,56.0000221 277.57,56 L277.57,55.95 Z"></path>
		</g>
	</g>
</svg>
