<svg xmlns="http://www.w3.org/2000/svg" width="78" height="86" viewBox="0 0 78 86">
    <defs>
        <linearGradient id="a" x1="0%" y1="0%" y2="100%">
            <stop offset="0%" stop-color="#FF606B"/>
            <stop offset="100%" stop-color="#FF1F90"/>
        </linearGradient>
    </defs>
    <g fill="none" fill-rule="evenodd">
        <path fill="#FFF" d="M-855-136H425v720H-855z"/>
        <path fill="url(#a)" fill-rule="nonzero" d="M588.545 24.52l1.914-17.26-11.912 4.94c-11.82-9.717-28.175-11.568-41.834-4.736L526.192 0l-1.913 17.26a39.37 39.37 0 0 0-9.032 21.122 27.006 27.006 0 0 0-.243 3.784c-.197 13.136 6.11 25.506 16.814 32.98 9.812 7.334 21.557 10.16 45.654 10.84l.532.014a8.751 8.751 0 0 1-2.078-8.779c.376-1.02.894-1.98 1.538-2.853.18-.218.368-.43.57-.633l.21-.21c.518-.47 1.026-.945 1.524-1.426 8.067-7.823 13.154-17.3 13.231-29.221a39.05 39.05 0 0 0-4.454-18.358zm-64.515-.882a2.001 2.001 0 0 1 3.962.538 2.001 2.001 0 0 1-2.076 1.822 2.02 2.02 0 0 1-1.886-2.36zm48.923 13.724a1.664 1.664 0 0 1-.727 1.049c-6.239 3.972-12.66 6.17-19.085 6.534-1.944.11-3.893.055-5.828-.166a36.82 36.82 0 0 1-10.09-2.686 43.596 43.596 0 0 1-13.738-9.252A1.705 1.705 0 0 1 523 31.62c.015-.41.177-.8.456-1.096l.094-.096a1.606 1.606 0 0 1 2.243.059 40.709 40.709 0 0 0 12.728 8.554 32.304 32.304 0 0 0 14.484 2.577c5.859-.338 11.747-2.369 17.497-6.031a1.605 1.605 0 0 1 1.81.053c.536.388.792 1.069.648 1.725l-.007-.003zm.017-8a2.001 2.001 0 0 1-3.962-.538 2.001 2.001 0 0 1 2.076-1.822 2.02 2.02 0 0 1 1.886 2.36z" transform="translate(-515)"/>
    </g>
</svg>
