<?xml version="1.0" encoding="UTF-8"?>
<svg width="63px" height="63px" viewBox="0 0 63 63" version="1.1" xmlns="http://www.w3.org/2000/svg" xmlns:xlink="http://www.w3.org/1999/xlink">
    <!-- Generator: sketchtool 50.2 (55047) - http://www.bohemiancoding.com/sketch -->
    <title>1606D810-87CC-4DA2-9EDB-F646D2A14E4B</title>
    <desc>Created with sketchtool.</desc>
    <defs></defs>
    <g id="Symbols" stroke="none" stroke-width="1" fill="none" fill-rule="evenodd">
        <g id="symbol_smile" fill="#536DFE">
            <path d="M44.5233924,20.4764958 C43.5682397,20.4764958 42.7939757,19.7022318 42.7939757,18.7470791 C42.7939757,17.7916741 43.5682397,17.0174101 44.5233924,17.0174101 C45.4785451,17.0174101 46.2528091,17.7916741 46.2528091,18.7470791 C46.2528091,19.7022318 45.4785451,20.4764958 44.5233924,20.4764958 M46.2449883,25.1369648 C46.20765,25.4808299 46.0363482,25.7903841 45.7658982,26.0063404 C41.2113891,29.6072106 36.3624629,31.8598673 31.3510648,32.7052758 C29.843407,32.9600841 28.2994201,33.0884974 26.7640108,33.0884974 C24.0685932,33.0884974 21.326755,32.6934184 18.6156956,31.9146133 C12.7192802,30.2182459 8.55682263,27.2213471 7.04033483,26.0111339 C6.76635283,25.7903841 6.59177131,25.4639267 6.56099248,25.1145114 C6.53374565,24.7978932 6.62608213,24.4812749 6.81605307,24.2279803 L6.88290871,24.1457353 C7.34156365,23.6323344 8.11355711,23.5690108 8.64739311,23.9933549 C10.0712922,25.1177911 13.9703637,27.9060498 19.3720473,29.4497845 C23.2741463,30.5641293 27.1664061,30.8038004 30.9524538,30.1584543 C35.520334,29.3831811 39.9671173,27.3051059 44.1638856,23.9865432 C44.7133633,23.5518554 45.5194153,23.6409121 45.9609149,24.1782801 C46.1816646,24.4522621 46.2828311,24.7910815 46.2449883,25.1369648 M8.28586806,17.0174101 C9.24076847,17.0174101 10.0152848,17.7916741 10.0152848,18.7470791 C10.0152848,19.7022318 9.24076847,20.4764958 8.28586806,20.4764958 C7.33071537,20.4764958 6.55619906,19.7022318 6.55619906,18.7470791 C6.55619906,17.7916741 7.33071537,17.0174101 8.28586806,17.0174101 M53.1296058,53.0369598 C53.1460043,53.0119835 53.2141214,52.9115739 53.2408636,52.8707037 C59.7218244,45.7385942 63.4667495,37.4376462 62.4157284,27.4564772 C61.8793695,22.3620772 60.0694738,17.6334911 57.3213284,13.5860757 L57.3213284,0 L48.403038,4.88475077 C44.1220063,2.12802772 39.132557,0.402142998 33.8108479,0.0640805028 C26.9224461,-0.373887028 20.483617,1.45669615 15.1649353,4.87793906 L6.25900681,0 L6.25900681,13.5860757 L6.25976366,13.5860757 C2.94372378,18.4988302 1.00718072,24.4192127 1.00718072,30.7924476 C1.00718072,30.7924476 0.951173347,31.9168838 1.15199256,33.754531 C2.1512952,44.2221064 8.38880053,53.1603274 17.2157636,57.9161603 C25.720306,62.853891 35.397471,63.9664698 55.1330045,62.2352871 C49.6099715,59.1183004 52.5026764,54.0143136 53.1296058,53.0369598" id="Fill-1"></path>
        </g>
    </g>
</svg>