<?xml version="1.0" encoding="UTF-8"?>
<svg width="63px" height="63px" viewBox="0 0 63 63" version="1.1" xmlns="http://www.w3.org/2000/svg" xmlns:xlink="http://www.w3.org/1999/xlink">
    <!-- Generator: sketchtool 50.2 (55047) - http://www.bohemiancoding.com/sketch -->
    <title>743EE30B-1EAE-47B4-85C5-62435BC29FCC</title>
    <desc>Created with sketchtool.</desc>
    <defs></defs>
    <g id="Symbols" stroke="none" stroke-width="1" fill="none" fill-rule="evenodd">
        <g id="symbol_alert">
            <ellipse id="Oval" fill="#FFFFFF" cx="27" cy="27" rx="24" ry="19"></ellipse>
            <path d="M44.3563456,20.3618786 C43.4014489,20.3618786 42.6269356,19.5876176 42.6269356,18.6324687 C42.6269356,17.6770674 43.4014489,16.9030587 44.3563456,16.9030587 C45.3114946,16.9030587 46.0857556,17.6770674 46.0857556,18.6324687 C46.0857556,19.5876176 45.3114946,20.3618786 44.3563456,20.3618786 M26.3523175,34.5077205 C23.7762409,34.5077205 21.6873256,31.3571922 21.6873256,27.4712547 C21.6873256,23.5850649 23.7762409,20.4350411 26.3523175,20.4350411 C28.9286464,20.4350411 31.0168049,23.5850649 31.0168049,27.4712547 C31.0168049,31.3571922 28.9286464,34.5077205 26.3523175,34.5077205 M8.27966805,20.3618786 C7.32451909,20.3618786 6.55025809,19.5876176 6.55025809,18.6324687 C6.55025809,17.6770674 7.32451909,16.9030587 8.27966805,16.9030587 C9.23456472,16.9030587 10.009078,17.6770674 10.009078,18.6324687 C10.009078,19.5876176 9.23456472,20.3618786 8.27966805,20.3618786 M53.1293399,53.0367526 C53.1457384,53.0117764 53.2138552,52.9116195 53.2408496,52.8707494 C59.7212805,45.7384155 63.4666956,37.4377522 62.4154262,27.4563699 C61.8790695,22.3619898 60.0691808,17.6334222 57.3212985,13.5860227 L57.3212985,0 L48.4030428,4.88473168 C44.1217756,2.12801941 39.1323459,0.402393711 33.8106575,0.0640802524 C26.9222826,-0.373885567 20.4834787,1.45669046 15.1648177,4.87817229 L6.25892406,0 L6.25892406,13.5860227 L6.25968092,13.5860227 C2.94365399,18.4987579 1.00711849,24.4193696 1.00711849,30.7923273 C1.00711849,30.7923273 0.951363625,31.9170114 1.15192977,33.7543991 C2.15122851,44.2221859 8.38870946,53.1601197 17.2156381,57.915934 C25.7201472,62.8538977 35.3972744,63.9664722 55.1329831,62.2352962 C49.6097194,59.1180694 52.5026653,54.0141026 53.1293399,53.0367526" id="Fill-1" fill="#FF6B64"></path>
        </g>
    </g>
</svg>