<?xml version="1.0" encoding="UTF-8"?>
<svg width="63px" height="63px" viewBox="0 0 63 63" version="1.1" xmlns="http://www.w3.org/2000/svg" xmlns:xlink="http://www.w3.org/1999/xlink">
    <!-- Generator: sketchtool 50.2 (55047) - http://www.bohemiancoding.com/sketch -->
    <title>44022CD2-00E7-4D70-AFFC-0487A2FF670A</title>
    <desc>Created with sketchtool.</desc>
    <defs></defs>
    <g id="Symbols" stroke="none" stroke-width="1" fill="none" fill-rule="evenodd">
        <g id="symbol_complete" fill="#79C720">
            <path d="M46.2448657,25.1368902 C46.2072753,25.4807543 46.035974,25.7908122 45.765777,26.0062633 C41.2112814,29.6076273 36.3623696,31.8597728 31.3509864,32.7054311 C29.8430807,32.960491 28.2990984,33.0889039 26.763946,33.0889039 C24.0682841,33.0889039 21.326454,32.6933215 18.6151504,31.9145186 C12.7190047,30.2186609 8.55655953,27.2215187 7.04007622,26.0115613 C6.76634733,25.7908122 6.59151403,25.4638512 6.5607353,25.1146892 C6.53348855,24.7978196 6.62582475,24.4812023 6.81579513,24.2279085 L6.88265057,24.145916 C7.34130415,23.6325166 8.11304304,23.5689409 8.64738202,23.993536 C10.0712768,25.1182212 13.9700845,27.9062194 19.3717522,29.4499494 C23.2740918,30.5642909 27.1660878,30.8039614 30.9521243,30.1583648 C35.5202433,29.3833462 39.966761,27.3055295 44.1635169,23.9867243 C44.712993,23.5520378 45.5190426,23.640842 45.9607931,24.1784607 C46.1815422,24.4521896 46.2824561,24.7910079 46.2448657,25.1368902 M8.95365564,18.6930345 L7.51815572,17.6384845 C7.34079958,17.5083056 7.22474862,17.3168215 7.19144704,17.0993521 C7.15814546,16.8816304 7.21137753,16.664161 7.34180872,16.4868049 C7.47198762,16.309701 7.66347171,16.1933978 7.8811934,16.1600962 C8.09841052,16.1270469 8.31587993,16.1800267 8.49348836,16.3104579 L10.9068438,18.0830101 C11.1202766,18.2396789 11.2431393,18.48162 11.2431393,18.7467712 C11.2431393,19.0119224 11.1205289,19.2541157 10.9068438,19.4112891 L8.49348836,21.1835891 C8.35069522,21.2885395 8.18166447,21.3437898 8.00758803,21.3437898 C7.96570877,21.3437898 7.92357723,21.3405101 7.8811934,21.3339507 C7.66347171,21.3006492 7.47198762,21.1845982 7.34180872,21.0072421 C7.21137753,20.8298859 7.15814546,20.6121642 7.19144704,20.3946948 C7.22474862,20.1772254 7.34079958,19.9857413 7.51815572,19.8553101 L8.95365564,18.8012647 C8.97610898,18.7843616 8.98090239,18.7624128 8.98090239,18.7470235 C8.98090239,18.7313818 8.97610898,18.709433 8.95365564,18.6930345 M41.9020369,18.0830101 L44.3153923,16.3104579 C44.4927485,16.1800267 44.7102179,16.1267946 44.9276873,16.1600962 C45.145409,16.1933978 45.3368931,16.309701 45.4673243,16.4873094 C45.7357552,16.8526177 45.6570423,17.3692967 45.2909773,17.6384845 L43.855225,18.6930345 C43.8325194,18.709433 43.8279783,18.7313818 43.8279783,18.7470235 C43.8279783,18.7624128 43.8325194,18.7843616 43.855225,18.8012647 L45.290725,19.8553101 C45.6567901,20.1244979 45.7357552,20.641177 45.467072,21.0072421 C45.3366408,21.1845982 45.145409,21.3006492 44.9276873,21.3339507 C44.8853035,21.3405101 44.8431719,21.3437898 44.8012927,21.3437898 C44.6272162,21.3437898 44.4581855,21.2885395 44.3153923,21.1835891 L41.9020369,19.4112891 C41.6880995,19.2541157 41.5657414,19.0119224 41.5657414,18.7467712 C41.5657414,18.48162 41.6883518,18.2396789 41.9020369,18.0830101 M53.1292105,53.0368025 C53.1458613,53.0118263 53.2137258,52.9119216 53.240468,52.8710514 C59.7214096,45.7384585 63.4665759,37.4377875 62.4153056,27.4563957 C61.8789483,22.3620109 60.0690579,17.6336911 57.3209207,13.5862877 L57.3209207,0 L48.402909,4.88498857 C44.1216377,2.12802141 39.1324555,0.40239409 33.8107622,0.0640803128 C26.9223808,-0.373633635 20.4833185,1.45694412 15.1646526,4.87817688 L6.25900281,0 L6.25900281,13.5862877 L6.25975966,13.5862877 C2.94347733,18.4987753 1.00719229,24.4191403 1.00719229,30.7923563 C1.00719229,30.7923563 0.951185088,31.9170415 1.15175142,33.7544309 C2.15130339,44.2222275 8.38853792,53.1601697 17.2154749,57.9162408 C25.719992,62.8537046 35.3971283,63.9662801 55.1326032,62.2356071 C49.6095867,59.1181251 52.5025353,54.0141534 53.1292105,53.0368025" id="Fill-1"></path>
        </g>
    </g>
</svg>